<svg width="189" height="24" viewBox="0 0 189 24" fill="none" xmlns="http://www.w3.org/2000/svg">
<path d="M2.11108 10.4444C1.25197 10.4444 0.555528 11.1409 0.555528 12C0.555528 12.8591 1.25197 13.5556 2.11108 13.5556L2.11108 10.4444ZM188.322 13.0999C188.93 12.4924 188.93 11.5075 188.322 10.9L178.423 1.00055C177.815 0.393063 176.83 0.393064 176.223 1.00055C175.615 1.60803 175.615 2.59295 176.223 3.20043L185.022 12L176.223 20.7995C175.615 21.407 175.615 22.3919 176.223 22.9994C176.83 23.6069 177.815 23.6069 178.423 22.9994L188.322 13.0999ZM2.11108 13.5556L187.222 13.5555L187.222 10.4444L2.11108 10.4444L2.11108 13.5556Z" fill="white"/>
</svg>
