<svg width="31" height="31" viewBox="0 0 31 31" fill="none" xmlns="http://www.w3.org/2000/svg">
<path fill-rule="evenodd" clip-rule="evenodd" d="M17.2576 27.367L12.398 12.8011L26.9639 17.6607L20.7728 19.6037C20.0231 19.839 19.4359 20.4262 19.2006 21.1759L17.2576 27.367ZM12.7484 10.1133C10.8706 9.48687 9.0838 11.2736 9.71027 13.1514L14.9871 28.9678C15.7242 31.1773 18.8591 31.1492 19.5565 28.9269L21.2493 23.5332L27.8702 30.1539C28.3897 30.6735 29.2319 30.6735 29.7515 30.1539C30.271 29.6344 30.271 28.7922 29.7515 28.2727L23.1307 21.6521L28.5238 19.9595C30.7461 19.2621 30.7742 16.1273 28.5649 15.3902L12.7484 10.1133Z" fill="white"/>
<path fill-rule="evenodd" clip-rule="evenodd" d="M8.67296 0.875932C9.66645 0.609726 10.6876 1.19931 10.9538 2.1928L11.9641 5.96307C12.2303 6.95656 11.6407 7.97776 10.6472 8.24395C9.65372 8.51015 8.63254 7.92057 8.36632 6.92708L7.35608 3.15681C7.08989 2.16333 7.67947 1.14214 8.67296 0.875932ZM1.78948 11.3569C0.795989 11.0907 0.206405 10.0695 0.472611 9.07602C0.738817 8.08254 1.76001 7.49295 2.75349 7.75915L6.52376 8.76939C7.51725 9.03558 8.10683 10.0568 7.84063 11.0503C7.57444 12.0438 6.55324 12.6334 5.55975 12.3671L1.78948 11.3569ZM5.04221 19.8122C4.24187 20.4582 3.06937 20.3332 2.42333 19.5328C1.77729 18.7325 1.90237 17.56 2.70271 16.914L5.46271 14.686C6.26305 14.04 7.43558 14.1651 8.08161 14.9654C8.72764 15.7657 8.60257 16.9382 7.80224 17.5843L5.04221 19.8122ZM19.4097 5.44578C20.0557 4.64547 19.9306 3.47294 19.1303 2.82691C18.33 2.18087 17.1575 2.30595 16.5114 3.10628L14.2835 5.86631C13.6375 6.66663 13.7625 7.83915 14.5629 8.48518C15.3632 9.13123 16.5357 9.00615 17.1818 8.20581L19.4097 5.44578Z" fill="white"/>
</svg>
