<svg width="67" height="86" viewBox="0 0 67 86" fill="none" xmlns="http://www.w3.org/2000/svg">
<g opacity="0.4">
<path fill-rule="evenodd" clip-rule="evenodd" d="M52.2716 9.7003C41.2787 6.59357 33.4795 4.76166 28.5428 3.72123C23.6124 2.68213 18.7179 5.22442 16.8967 10.0004C15.3742 13.9929 13.2922 20.0222 10.9068 28.4626C8.52147 36.9031 7.13963 43.1302 6.34711 47.3291C5.39911 52.3518 8.23887 57.08 12.9838 58.7752C15.1705 59.5565 17.9614 60.5122 21.4088 61.6191L19.8735 67.0514C18.6063 71.5356 23.2339 75.4107 27.4258 73.3758L40.1953 67.1768C49.1765 69.6406 55.7235 71.1657 60.0609 72.0798C64.9913 73.1189 69.8858 70.5765 71.7069 65.8006C73.2294 61.8081 75.3114 55.7788 77.6968 47.3383C80.0822 38.8979 81.464 32.6707 82.2565 28.4719C83.2046 23.4492 80.3648 18.7211 75.6199 17.0258C70.8688 15.3284 63.2644 12.807 52.2716 9.7003ZM32.3916 37.0545C31.1663 40.382 28.905 41.9066 25.094 42.8128C24.2687 43.009 23.7163 43.8007 23.9603 44.6131C24.1872 45.3686 24.5271 46.2944 25.0015 47.0993C25.4103 47.7929 26.1968 48.1333 27.0018 48.1148C32.7211 47.983 38.4231 45.5497 40.6394 39.3874L40.6734 39.397L42.7828 31.9329C43.2635 30.231 43.6188 28.8903 43.8804 27.8507C44.3522 25.9759 43.411 24.1863 41.5737 23.5847C40.5542 23.2507 39.2167 22.8399 37.4777 22.3484C35.7386 21.8569 34.384 21.5069 33.3403 21.2578C31.46 20.809 29.7216 21.8409 29.1422 23.6851C28.8182 24.7163 28.4155 26.058 27.9289 27.7798C27.4782 29.3745 27.1369 30.6537 26.8795 31.6666C26.3739 33.6557 27.4328 35.5546 29.3929 36.1627C30.1987 36.4127 31.1867 36.7086 32.3916 37.0545ZM45.8731 48.6853C49.6841 47.7791 51.9454 46.2544 53.1707 42.927C51.9658 42.581 50.9778 42.2851 50.172 42.0351C48.2119 41.427 47.153 39.5282 47.6585 37.5391C47.916 36.5261 48.2573 35.2469 48.708 33.6522C49.1946 31.9304 49.5973 30.5887 49.9213 29.5576C50.5006 27.7134 52.2391 26.6814 54.1194 27.1303C55.1631 27.3794 56.5177 27.7294 58.2568 28.2208C59.9958 28.7123 61.3333 29.1232 62.3528 29.4571C64.1901 30.0587 65.1313 31.8483 64.6595 33.7231C64.3979 34.7628 64.0426 36.1034 63.5619 37.8053L61.4525 45.2694L61.4185 45.2598C59.2022 51.4222 53.5002 53.8555 47.7809 53.9872C46.9759 54.0057 46.1894 53.6654 45.7806 52.9717C45.3062 52.1669 44.9663 51.2411 44.7394 50.4855C44.4953 49.6732 45.0478 48.8814 45.8731 48.6853Z" fill="url(#paint0_linear_689_1350)"/>
</g>
<defs>
<linearGradient id="paint0_linear_689_1350" x1="18.8766" y1="0.262451" x2="96.7046" y2="27.2901" gradientUnits="userSpaceOnUse">
<stop stop-color="#C71DFF"/>
<stop offset="0.526879" stop-color="#B79EFF"/>
<stop offset="1" stop-color="#FA7596"/>
</linearGradient>
</defs>
</svg>
