<svg width="852" height="134" viewBox="0 0 852 134" fill="none" xmlns="http://www.w3.org/2000/svg">
<path d="M748.782 57.6937L261.782 66.9362C255.517 67.0551 250.5 72.1679 250.5 78.4341V121C250.5 127.351 255.649 132.5 262 132.5H749C755.351 132.5 760.5 127.351 760.5 121V69.1916C760.5 62.7549 755.217 57.5715 748.782 57.6937Z" fill="#FA7596" stroke="#B79EFF" stroke-width="3"/>
<path d="M52.4754 48V16.5H58.5504V48H52.4754ZM32.6304 48V16.5H38.7054V48H32.6304ZM37.8504 34.365V29.46H53.5104V34.365H37.8504ZM75.5094 48.54C73.2294 48.54 71.2044 48.06 69.4344 47.1C67.6944 46.11 66.3294 44.745 65.3394 43.005C64.3794 41.235 63.8994 39.195 63.8994 36.885C63.8994 34.515 64.3794 32.43 65.3394 30.63C66.3294 28.8 67.6944 27.375 69.4344 26.355C71.1744 25.305 73.1994 24.78 75.5094 24.78C77.7594 24.78 79.7244 25.275 81.4044 26.265C83.0844 27.255 84.3894 28.59 85.3194 30.27C86.2494 31.95 86.7144 33.855 86.7144 35.985C86.7144 36.285 86.7144 36.63 86.7144 37.02C86.7144 37.38 86.6844 37.755 86.6244 38.145H68.2194V34.455H80.5944C80.5044 32.985 79.9794 31.83 79.0194 30.99C78.0894 30.15 76.9194 29.73 75.5094 29.73C74.4894 29.73 73.5444 29.97 72.6744 30.45C71.8044 30.9 71.1144 31.605 70.6044 32.565C70.1244 33.525 69.8844 34.74 69.8844 36.21V37.515C69.8844 38.745 70.1094 39.825 70.5594 40.755C71.0394 41.655 71.6994 42.36 72.5394 42.87C73.3794 43.35 74.3544 43.59 75.4644 43.59C76.5744 43.59 77.4894 43.35 78.2094 42.87C78.9594 42.39 79.5144 41.775 79.8744 41.025H86.0844C85.6644 42.435 84.9594 43.71 83.9694 44.85C82.9794 45.99 81.7644 46.89 80.3244 47.55C78.8844 48.21 77.2794 48.54 75.5094 48.54ZM91.6897 48V25.32H97.0897L97.6747 29.505C98.2147 28.515 98.8897 27.675 99.6997 26.985C100.54 26.295 101.485 25.755 102.535 25.365C103.615 24.975 104.8 24.78 106.09 24.78V31.215H104.02C103.12 31.215 102.28 31.32 101.5 31.53C100.75 31.74 100.09 32.085 99.5197 32.565C98.9497 33.015 98.5147 33.645 98.2147 34.455C97.9147 35.265 97.7647 36.285 97.7647 37.515V48H91.6897ZM120.641 48.54C118.361 48.54 116.336 48.06 114.566 47.1C112.826 46.11 111.461 44.745 110.471 43.005C109.511 41.235 109.031 39.195 109.031 36.885C109.031 34.515 109.511 32.43 110.471 30.63C111.461 28.8 112.826 27.375 114.566 26.355C116.306 25.305 118.331 24.78 120.641 24.78C122.891 24.78 124.856 25.275 126.536 26.265C128.216 27.255 129.521 28.59 130.451 30.27C131.381 31.95 131.846 33.855 131.846 35.985C131.846 36.285 131.846 36.63 131.846 37.02C131.846 37.38 131.816 37.755 131.756 38.145H113.351V34.455H125.726C125.636 32.985 125.111 31.83 124.151 30.99C123.221 30.15 122.051 29.73 120.641 29.73C119.621 29.73 118.676 29.97 117.806 30.45C116.936 30.9 116.246 31.605 115.736 32.565C115.256 33.525 115.016 34.74 115.016 36.21V37.515C115.016 38.745 115.241 39.825 115.691 40.755C116.171 41.655 116.831 42.36 117.671 42.87C118.511 43.35 119.486 43.59 120.596 43.59C121.706 43.59 122.621 43.35 123.341 42.87C124.091 42.39 124.646 41.775 125.006 41.025H131.216C130.796 42.435 130.091 43.71 129.101 44.85C128.111 45.99 126.896 46.89 125.456 47.55C124.016 48.21 122.411 48.54 120.641 48.54ZM143.977 16.5L139.342 28.02H135.202L137.632 16.5H143.977ZM155.188 48.54C153.118 48.54 151.318 48.21 149.788 47.55C148.258 46.89 147.058 45.975 146.188 44.805C145.318 43.635 144.823 42.315 144.703 40.845H150.733C150.883 41.415 151.138 41.94 151.498 42.42C151.858 42.87 152.338 43.23 152.938 43.5C153.538 43.77 154.258 43.905 155.098 43.905C155.908 43.905 156.568 43.8 157.078 43.59C157.588 43.35 157.963 43.035 158.203 42.645C158.473 42.255 158.608 41.85 158.608 41.43C158.608 40.8 158.428 40.32 158.068 39.99C157.708 39.63 157.183 39.345 156.493 39.135C155.803 38.925 154.963 38.715 153.973 38.505C152.893 38.295 151.828 38.04 150.778 37.74C149.758 37.41 148.843 37.005 148.033 36.525C147.223 36.045 146.578 35.43 146.098 34.68C145.618 33.93 145.378 33 145.378 31.89C145.378 30.54 145.738 29.34 146.458 28.29C147.178 27.21 148.228 26.355 149.608 25.725C150.988 25.095 152.653 24.78 154.603 24.78C157.333 24.78 159.493 25.395 161.083 26.625C162.673 27.855 163.618 29.55 163.918 31.71H158.203C158.023 31.02 157.618 30.48 156.988 30.09C156.388 29.67 155.578 29.46 154.558 29.46C153.478 29.46 152.653 29.655 152.083 30.045C151.513 30.435 151.228 30.945 151.228 31.575C151.228 31.995 151.408 32.37 151.768 32.7C152.158 33.03 152.698 33.315 153.388 33.555C154.078 33.765 154.918 33.975 155.908 34.185C157.648 34.545 159.178 34.965 160.498 35.445C161.818 35.895 162.853 36.555 163.603 37.425C164.353 38.265 164.728 39.495 164.728 41.115C164.728 42.555 164.338 43.845 163.558 44.985C162.778 46.095 161.668 46.965 160.228 47.595C158.818 48.225 157.138 48.54 155.188 48.54ZM186.939 48L178.659 16.5H185.139L190.629 41.115L197.109 16.5H203.814L210.114 41.115L215.649 16.5H222.174L213.669 48H206.424L200.394 25.05L194.139 48H186.939ZM226.25 48V15.6H232.325V28.695C233.075 27.495 234.065 26.55 235.295 25.86C236.555 25.14 238.01 24.78 239.66 24.78C241.55 24.78 243.14 25.185 244.43 25.995C245.72 26.775 246.695 27.915 247.355 29.415C248.015 30.915 248.345 32.775 248.345 34.995V48H242.315V35.535C242.315 33.735 241.94 32.355 241.19 31.395C240.44 30.405 239.255 29.91 237.635 29.91C236.645 29.91 235.745 30.15 234.935 30.63C234.125 31.11 233.48 31.815 233 32.745C232.55 33.645 232.325 34.725 232.325 35.985V48H226.25ZM261.718 48.54C259.828 48.54 258.268 48.24 257.038 47.64C255.808 47.01 254.893 46.185 254.293 45.165C253.723 44.115 253.438 42.96 253.438 41.7C253.438 40.32 253.783 39.105 254.473 38.055C255.193 37.005 256.258 36.18 257.668 35.58C259.108 34.98 260.908 34.68 263.068 34.68H268.693C268.693 33.57 268.543 32.655 268.243 31.935C267.943 31.185 267.478 30.63 266.848 30.27C266.218 29.91 265.378 29.73 264.328 29.73C263.188 29.73 262.213 29.985 261.403 30.495C260.623 30.975 260.143 31.725 259.963 32.745H254.068C254.218 31.125 254.743 29.73 255.643 28.56C256.573 27.36 257.788 26.43 259.288 25.77C260.818 25.11 262.513 24.78 264.373 24.78C266.503 24.78 268.348 25.14 269.908 25.86C271.468 26.58 272.668 27.615 273.508 28.965C274.348 30.315 274.768 31.98 274.768 33.96V48H269.638L268.963 44.535C268.633 45.135 268.243 45.675 267.793 46.155C267.343 46.635 266.818 47.055 266.218 47.415C265.618 47.775 264.943 48.045 264.193 48.225C263.443 48.435 262.618 48.54 261.718 48.54ZM263.158 43.86C263.938 43.86 264.628 43.725 265.228 43.455C265.858 43.155 266.398 42.765 266.848 42.285C267.298 41.775 267.643 41.205 267.883 40.575C268.153 39.915 268.333 39.21 268.423 38.46V38.415H263.788C262.858 38.415 262.093 38.535 261.493 38.775C260.923 38.985 260.503 39.3 260.233 39.72C259.963 40.14 259.828 40.62 259.828 41.16C259.828 41.76 259.963 42.255 260.233 42.645C260.503 43.035 260.893 43.335 261.403 43.545C261.913 43.755 262.498 43.86 263.158 43.86ZM290.386 48C288.796 48 287.401 47.76 286.201 47.28C285.031 46.77 284.116 45.945 283.456 44.805C282.796 43.635 282.466 42.045 282.466 40.035V30.405H278.596V25.32H282.466L283.141 19.155H288.541V25.32H294.526V30.405H288.541V40.125C288.541 41.145 288.766 41.85 289.216 42.24C289.666 42.63 290.431 42.825 291.511 42.825H294.481V48H290.386ZM324.495 48.54C321.345 48.54 318.63 47.865 316.35 46.515C314.1 45.135 312.36 43.23 311.13 40.8C309.93 38.34 309.33 35.505 309.33 32.295C309.33 29.085 309.93 26.25 311.13 23.79C312.36 21.33 314.1 19.41 316.35 18.03C318.63 16.65 321.345 15.96 324.495 15.96C328.305 15.96 331.425 16.905 333.855 18.795C336.285 20.685 337.8 23.355 338.4 26.805H331.785C331.395 25.125 330.57 23.82 329.31 22.89C328.08 21.93 326.46 21.45 324.45 21.45C322.59 21.45 320.985 21.9 319.635 22.8C318.315 23.67 317.295 24.915 316.575 26.535C315.855 28.125 315.495 30.045 315.495 32.295C315.495 34.515 315.855 36.435 316.575 38.055C317.295 39.675 318.315 40.92 319.635 41.79C320.985 42.66 322.59 43.095 324.45 43.095C326.46 43.095 328.08 42.66 329.31 41.79C330.54 40.89 331.35 39.645 331.74 38.055H338.4C337.8 41.325 336.285 43.89 333.855 45.75C331.425 47.61 328.305 48.54 324.495 48.54ZM343.452 48V15.6H349.527V48H343.452ZM355.584 48V25.32H361.659V48H355.584ZM358.644 22.215C357.564 22.215 356.664 21.9 355.944 21.27C355.254 20.61 354.909 19.785 354.909 18.795C354.909 17.805 355.254 16.995 355.944 16.365C356.664 15.705 357.564 15.375 358.644 15.375C359.754 15.375 360.654 15.705 361.344 16.365C362.064 16.995 362.424 17.805 362.424 18.795C362.424 19.785 362.064 20.61 361.344 21.27C360.654 21.9 359.754 22.215 358.644 22.215ZM367.798 57.9V25.32H373.198L373.873 28.47C374.353 27.81 374.923 27.21 375.583 26.67C376.243 26.1 377.023 25.65 377.923 25.32C378.853 24.96 379.933 24.78 381.163 24.78C383.293 24.78 385.168 25.305 386.788 26.355C388.408 27.405 389.683 28.83 390.613 30.63C391.573 32.4 392.053 34.425 392.053 36.705C392.053 38.985 391.573 41.025 390.613 42.825C389.653 44.595 388.363 45.99 386.743 47.01C385.123 48.03 383.278 48.54 381.208 48.54C379.528 48.54 378.073 48.24 376.843 47.64C375.643 47.01 374.653 46.155 373.873 45.075V57.9H367.798ZM379.768 43.23C380.968 43.23 382.018 42.96 382.918 42.42C383.848 41.88 384.568 41.115 385.078 40.125C385.588 39.135 385.843 37.995 385.843 36.705C385.843 35.415 385.588 34.275 385.078 33.285C384.568 32.265 383.848 31.485 382.918 30.945C382.018 30.375 380.968 30.09 379.768 30.09C378.598 30.09 377.548 30.375 376.618 30.945C375.718 31.485 374.998 32.25 374.458 33.24C373.948 34.23 373.693 35.37 373.693 36.66C373.693 37.95 373.948 39.105 374.458 40.125C374.998 41.115 375.718 41.88 376.618 42.42C377.548 42.96 378.598 43.23 379.768 43.23ZM406.555 48.54C404.485 48.54 402.685 48.21 401.155 47.55C399.625 46.89 398.425 45.975 397.555 44.805C396.685 43.635 396.19 42.315 396.07 40.845H402.1C402.25 41.415 402.505 41.94 402.865 42.42C403.225 42.87 403.705 43.23 404.305 43.5C404.905 43.77 405.625 43.905 406.465 43.905C407.275 43.905 407.935 43.8 408.445 43.59C408.955 43.35 409.33 43.035 409.57 42.645C409.84 42.255 409.975 41.85 409.975 41.43C409.975 40.8 409.795 40.32 409.435 39.99C409.075 39.63 408.55 39.345 407.86 39.135C407.17 38.925 406.33 38.715 405.34 38.505C404.26 38.295 403.195 38.04 402.145 37.74C401.125 37.41 400.21 37.005 399.4 36.525C398.59 36.045 397.945 35.43 397.465 34.68C396.985 33.93 396.745 33 396.745 31.89C396.745 30.54 397.105 29.34 397.825 28.29C398.545 27.21 399.595 26.355 400.975 25.725C402.355 25.095 404.02 24.78 405.97 24.78C408.7 24.78 410.86 25.395 412.45 26.625C414.04 27.855 414.985 29.55 415.285 31.71H409.57C409.39 31.02 408.985 30.48 408.355 30.09C407.755 29.67 406.945 29.46 405.925 29.46C404.845 29.46 404.02 29.655 403.45 30.045C402.88 30.435 402.595 30.945 402.595 31.575C402.595 31.995 402.775 32.37 403.135 32.7C403.525 33.03 404.065 33.315 404.755 33.555C405.445 33.765 406.285 33.975 407.275 34.185C409.015 34.545 410.545 34.965 411.865 35.445C413.185 35.895 414.22 36.555 414.97 37.425C415.72 38.265 416.095 39.495 416.095 41.115C416.095 42.555 415.705 43.845 414.925 44.985C414.145 46.095 413.035 46.965 411.595 47.595C410.185 48.225 408.505 48.54 406.555 48.54ZM421.371 48V16.5H428.616L438.246 36.165L447.786 16.5H455.031V48H448.956V26.85L440.631 43.59H435.816L427.446 26.85V48H421.371ZM468.744 48.54C466.854 48.54 465.294 48.24 464.064 47.64C462.834 47.01 461.919 46.185 461.319 45.165C460.749 44.115 460.464 42.96 460.464 41.7C460.464 40.32 460.809 39.105 461.499 38.055C462.219 37.005 463.284 36.18 464.694 35.58C466.134 34.98 467.934 34.68 470.094 34.68H475.719C475.719 33.57 475.569 32.655 475.269 31.935C474.969 31.185 474.504 30.63 473.874 30.27C473.244 29.91 472.404 29.73 471.354 29.73C470.214 29.73 469.239 29.985 468.429 30.495C467.649 30.975 467.169 31.725 466.989 32.745H461.094C461.244 31.125 461.769 29.73 462.669 28.56C463.599 27.36 464.814 26.43 466.314 25.77C467.844 25.11 469.539 24.78 471.399 24.78C473.529 24.78 475.374 25.14 476.934 25.86C478.494 26.58 479.694 27.615 480.534 28.965C481.374 30.315 481.794 31.98 481.794 33.96V48H476.664L475.989 44.535C475.659 45.135 475.269 45.675 474.819 46.155C474.369 46.635 473.844 47.055 473.244 47.415C472.644 47.775 471.969 48.045 471.219 48.225C470.469 48.435 469.644 48.54 468.744 48.54ZM470.184 43.86C470.964 43.86 471.654 43.725 472.254 43.455C472.884 43.155 473.424 42.765 473.874 42.285C474.324 41.775 474.669 41.205 474.909 40.575C475.179 39.915 475.359 39.21 475.449 38.46V38.415H470.814C469.884 38.415 469.119 38.535 468.519 38.775C467.949 38.985 467.529 39.3 467.259 39.72C466.989 40.14 466.854 40.62 466.854 41.16C466.854 41.76 466.989 42.255 467.259 42.645C467.529 43.035 467.919 43.335 468.429 43.545C468.939 43.755 469.524 43.86 470.184 43.86ZM497.413 48C495.823 48 494.428 47.76 493.228 47.28C492.058 46.77 491.143 45.945 490.483 44.805C489.823 43.635 489.493 42.045 489.493 40.035V30.405H485.623V25.32H489.493L490.168 19.155H495.568V25.32H501.553V30.405H495.568V40.125C495.568 41.145 495.793 41.85 496.243 42.24C496.693 42.63 497.458 42.825 498.538 42.825H501.508V48H497.413ZM516.984 48.54C514.704 48.54 512.679 48.06 510.909 47.1C509.169 46.11 507.804 44.745 506.814 43.005C505.854 41.235 505.374 39.195 505.374 36.885C505.374 34.515 505.854 32.43 506.814 30.63C507.804 28.8 509.169 27.375 510.909 26.355C512.649 25.305 514.674 24.78 516.984 24.78C519.234 24.78 521.199 25.275 522.879 26.265C524.559 27.255 525.864 28.59 526.794 30.27C527.724 31.95 528.189 33.855 528.189 35.985C528.189 36.285 528.189 36.63 528.189 37.02C528.189 37.38 528.159 37.755 528.099 38.145H509.694V34.455H522.069C521.979 32.985 521.454 31.83 520.494 30.99C519.564 30.15 518.394 29.73 516.984 29.73C515.964 29.73 515.019 29.97 514.149 30.45C513.279 30.9 512.589 31.605 512.079 32.565C511.599 33.525 511.359 34.74 511.359 36.21V37.515C511.359 38.745 511.584 39.825 512.034 40.755C512.514 41.655 513.174 42.36 514.014 42.87C514.854 43.35 515.829 43.59 516.939 43.59C518.049 43.59 518.964 43.35 519.684 42.87C520.434 42.39 520.989 41.775 521.349 41.025H527.559C527.139 42.435 526.434 43.71 525.444 44.85C524.454 45.99 523.239 46.89 521.799 47.55C520.359 48.21 518.754 48.54 516.984 48.54ZM531.184 48L542.704 16.5H549.589L561.064 48H554.629L546.124 23.43L537.574 48H531.184ZM536.269 40.845L537.889 36.12H553.909L555.484 40.845H536.269ZM565.204 48V16.5H571.279V48H565.204ZM602.185 48.54C599.035 48.54 596.32 47.865 594.04 46.515C591.79 45.135 590.05 43.23 588.82 40.8C587.62 38.34 587.02 35.505 587.02 32.295C587.02 29.085 587.62 26.25 588.82 23.79C590.05 21.33 591.79 19.41 594.04 18.03C596.32 16.65 599.035 15.96 602.185 15.96C605.995 15.96 609.115 16.905 611.545 18.795C613.975 20.685 615.49 23.355 616.09 26.805H609.475C609.085 25.125 608.26 23.82 607 22.89C605.77 21.93 604.15 21.45 602.14 21.45C600.28 21.45 598.675 21.9 597.325 22.8C596.005 23.67 594.985 24.915 594.265 26.535C593.545 28.125 593.185 30.045 593.185 32.295C593.185 34.515 593.545 36.435 594.265 38.055C594.985 39.675 596.005 40.92 597.325 41.79C598.675 42.66 600.28 43.095 602.14 43.095C604.15 43.095 605.77 42.66 607 41.79C608.23 40.89 609.04 39.645 609.43 38.055H616.09C615.49 41.325 613.975 43.89 611.545 45.75C609.115 47.61 605.995 48.54 602.185 48.54ZM628.793 48.54C626.903 48.54 625.343 48.24 624.113 47.64C622.883 47.01 621.968 46.185 621.368 45.165C620.798 44.115 620.513 42.96 620.513 41.7C620.513 40.32 620.858 39.105 621.548 38.055C622.268 37.005 623.333 36.18 624.743 35.58C626.183 34.98 627.983 34.68 630.143 34.68H635.768C635.768 33.57 635.618 32.655 635.318 31.935C635.018 31.185 634.553 30.63 633.923 30.27C633.293 29.91 632.453 29.73 631.403 29.73C630.263 29.73 629.288 29.985 628.478 30.495C627.698 30.975 627.218 31.725 627.038 32.745H621.143C621.293 31.125 621.818 29.73 622.718 28.56C623.648 27.36 624.863 26.43 626.363 25.77C627.893 25.11 629.588 24.78 631.448 24.78C633.578 24.78 635.423 25.14 636.983 25.86C638.543 26.58 639.743 27.615 640.583 28.965C641.423 30.315 641.843 31.98 641.843 33.96V48H636.713L636.038 44.535C635.708 45.135 635.318 45.675 634.868 46.155C634.418 46.635 633.893 47.055 633.293 47.415C632.693 47.775 632.018 48.045 631.268 48.225C630.518 48.435 629.693 48.54 628.793 48.54ZM630.233 43.86C631.013 43.86 631.703 43.725 632.303 43.455C632.933 43.155 633.473 42.765 633.923 42.285C634.373 41.775 634.718 41.205 634.958 40.575C635.228 39.915 635.408 39.21 635.498 38.46V38.415H630.863C629.933 38.415 629.168 38.535 628.568 38.775C627.998 38.985 627.578 39.3 627.308 39.72C627.038 40.14 626.903 40.62 626.903 41.16C626.903 41.76 627.038 42.255 627.308 42.645C627.578 43.035 627.968 43.335 628.478 43.545C628.988 43.755 629.573 43.86 630.233 43.86ZM647.51 48V25.32H652.865L653.315 29.01C654.005 27.75 654.98 26.73 656.24 25.95C657.53 25.17 659.06 24.78 660.83 24.78C662.72 24.78 664.31 25.17 665.6 25.95C666.89 26.73 667.865 27.87 668.525 29.37C669.215 30.87 669.56 32.715 669.56 34.905V48H663.53V35.49C663.53 33.69 663.14 32.31 662.36 31.35C661.61 30.39 660.44 29.91 658.85 29.91C657.83 29.91 656.915 30.15 656.105 30.63C655.325 31.11 654.71 31.8 654.26 32.7C653.81 33.57 653.585 34.635 653.585 35.895V48H647.51ZM686.009 48V16.5H696.539C700.199 16.5 703.214 17.16 705.584 18.48C707.984 19.77 709.754 21.6 710.894 23.97C712.064 26.31 712.649 29.07 712.649 32.25C712.649 35.43 712.064 38.205 710.894 40.575C709.754 42.915 707.999 44.745 705.629 46.065C703.259 47.355 700.229 48 696.539 48H686.009ZM692.084 42.78H696.224C698.804 42.78 700.829 42.36 702.299 41.52C703.799 40.68 704.864 39.48 705.494 37.92C706.124 36.33 706.439 34.44 706.439 32.25C706.439 30.03 706.124 28.14 705.494 26.58C704.864 24.99 703.799 23.775 702.299 22.935C700.829 22.095 698.804 21.675 696.224 21.675H692.084V42.78ZM728.401 48.54C726.241 48.54 724.291 48.045 722.551 47.055C720.841 46.035 719.476 44.64 718.456 42.87C717.466 41.07 716.971 39.015 716.971 36.705C716.971 34.335 717.466 32.265 718.456 30.495C719.476 28.695 720.856 27.3 722.596 26.31C724.336 25.29 726.286 24.78 728.446 24.78C730.636 24.78 732.586 25.29 734.296 26.31C736.036 27.3 737.401 28.695 738.391 30.495C739.411 32.265 739.921 34.32 739.921 36.66C739.921 39 739.411 41.07 738.391 42.87C737.401 44.64 736.036 46.035 734.296 47.055C732.556 48.045 730.591 48.54 728.401 48.54ZM728.401 43.275C729.421 43.275 730.321 43.035 731.101 42.555C731.911 42.075 732.541 41.34 732.991 40.35C733.471 39.36 733.711 38.13 733.711 36.66C733.711 35.19 733.471 33.975 732.991 33.015C732.541 32.025 731.911 31.29 731.101 30.81C730.321 30.3 729.436 30.045 728.446 30.045C727.486 30.045 726.601 30.3 725.791 30.81C724.981 31.29 724.336 32.025 723.856 33.015C723.406 33.975 723.181 35.19 723.181 36.66C723.181 38.13 723.406 39.36 723.856 40.35C724.336 41.34 724.966 42.075 725.746 42.555C726.556 43.035 727.441 43.275 728.401 43.275ZM755.882 48V16.5H776.402V21.405H761.957V29.82H773.522V34.59H761.957V48H755.882ZM790.276 48.54C788.116 48.54 786.166 48.045 784.426 47.055C782.716 46.035 781.351 44.64 780.331 42.87C779.341 41.07 778.846 39.015 778.846 36.705C778.846 34.335 779.341 32.265 780.331 30.495C781.351 28.695 782.731 27.3 784.471 26.31C786.211 25.29 788.161 24.78 790.321 24.78C792.511 24.78 794.461 25.29 796.171 26.31C797.911 27.3 799.276 28.695 800.266 30.495C801.286 32.265 801.796 34.32 801.796 36.66C801.796 39 801.286 41.07 800.266 42.87C799.276 44.64 797.911 46.035 796.171 47.055C794.431 48.045 792.466 48.54 790.276 48.54ZM790.276 43.275C791.296 43.275 792.196 43.035 792.976 42.555C793.786 42.075 794.416 41.34 794.866 40.35C795.346 39.36 795.586 38.13 795.586 36.66C795.586 35.19 795.346 33.975 794.866 33.015C794.416 32.025 793.786 31.29 792.976 30.81C792.196 30.3 791.311 30.045 790.321 30.045C789.361 30.045 788.476 30.3 787.666 30.81C786.856 31.29 786.211 32.025 785.731 33.015C785.281 33.975 785.056 35.19 785.056 36.66C785.056 38.13 785.281 39.36 785.731 40.35C786.211 41.34 786.841 42.075 787.621 42.555C788.431 43.035 789.316 43.275 790.276 43.275ZM807.032 48V25.32H812.432L813.017 29.505C813.557 28.515 814.232 27.675 815.042 26.985C815.882 26.295 816.827 25.755 817.877 25.365C818.957 24.975 820.142 24.78 821.432 24.78V31.215H819.362C818.462 31.215 817.622 31.32 816.842 31.53C816.092 31.74 815.432 32.085 814.862 32.565C814.292 33.015 813.857 33.645 813.557 34.455C813.257 35.265 813.107 36.285 813.107 37.515V48H807.032ZM113.153 113V101.93L102.533 81.5H109.418L116.843 97.07H115.628L123.008 81.5H129.848L119.228 101.93V113H113.153ZM140.105 113.54C137.945 113.54 135.995 113.045 134.255 112.055C132.545 111.035 131.18 109.64 130.16 107.87C129.17 106.07 128.675 104.015 128.675 101.705C128.675 99.335 129.17 97.265 130.16 95.495C131.18 93.695 132.56 92.3 134.3 91.31C136.04 90.29 137.99 89.78 140.15 89.78C142.34 89.78 144.29 90.29 146 91.31C147.74 92.3 149.105 93.695 150.095 95.495C151.115 97.265 151.625 99.32 151.625 101.66C151.625 104 151.115 106.07 150.095 107.87C149.105 109.64 147.74 111.035 146 112.055C144.26 113.045 142.295 113.54 140.105 113.54ZM140.105 108.275C141.125 108.275 142.025 108.035 142.805 107.555C143.615 107.075 144.245 106.34 144.695 105.35C145.175 104.36 145.415 103.13 145.415 101.66C145.415 100.19 145.175 98.975 144.695 98.015C144.245 97.025 143.615 96.29 142.805 95.81C142.025 95.3 141.14 95.045 140.15 95.045C139.19 95.045 138.305 95.3 137.495 95.81C136.685 96.29 136.04 97.025 135.56 98.015C135.11 98.975 134.885 100.19 134.885 101.66C134.885 103.13 135.11 104.36 135.56 105.35C136.04 106.34 136.67 107.075 137.45 107.555C138.26 108.035 139.145 108.275 140.105 108.275ZM165.321 113.54C163.491 113.54 161.916 113.165 160.596 112.415C159.306 111.635 158.316 110.51 157.626 109.04C156.936 107.54 156.591 105.695 156.591 103.505V90.32H162.666V102.875C162.666 104.705 163.041 106.085 163.791 107.015C164.571 107.945 165.756 108.41 167.346 108.41C168.366 108.41 169.266 108.185 170.046 107.735C170.826 107.255 171.441 106.58 171.891 105.71C172.371 104.81 172.611 103.715 172.611 102.425V90.32H178.641V113H173.331L172.836 109.31C172.176 110.6 171.201 111.635 169.911 112.415C168.621 113.165 167.091 113.54 165.321 113.54ZM209.851 113.54C206.791 113.54 204.091 112.85 201.751 111.47C199.411 110.09 197.581 108.185 196.261 105.755C194.941 103.295 194.281 100.46 194.281 97.25C194.281 94.04 194.941 91.22 196.261 88.79C197.581 86.33 199.411 84.41 201.751 83.03C204.091 81.65 206.791 80.96 209.851 80.96C212.941 80.96 215.656 81.65 217.996 83.03C220.336 84.41 222.151 86.33 223.441 88.79C224.761 91.22 225.421 94.04 225.421 97.25C225.421 100.46 224.761 103.295 223.441 105.755C222.151 108.185 220.336 110.09 217.996 111.47C215.656 112.85 212.941 113.54 209.851 113.54ZM209.851 108.095C211.771 108.095 213.421 107.66 214.801 106.79C216.211 105.89 217.306 104.63 218.086 103.01C218.866 101.39 219.256 99.47 219.256 97.25C219.256 95 218.866 93.08 218.086 91.49C217.306 89.87 216.211 88.625 214.801 87.755C213.421 86.885 211.771 86.45 209.851 86.45C207.961 86.45 206.311 86.885 204.901 87.755C203.491 88.625 202.396 89.87 201.616 91.49C200.836 93.08 200.446 95 200.446 97.25C200.446 99.47 200.836 101.39 201.616 103.01C202.396 104.63 203.491 105.89 204.901 106.79C206.311 107.66 207.961 108.095 209.851 108.095ZM230.469 113V90.32H235.869L236.454 94.505C236.994 93.515 237.669 92.675 238.479 91.985C239.319 91.295 240.264 90.755 241.314 90.365C242.394 89.975 243.579 89.78 244.869 89.78V96.215H242.799C241.899 96.215 241.059 96.32 240.279 96.53C239.529 96.74 238.869 97.085 238.299 97.565C237.729 98.015 237.294 98.645 236.994 99.455C236.694 100.265 236.544 101.285 236.544 102.515V113H230.469ZM267.753 113V101.93L257.133 81.5H264.018L271.443 97.07H270.228L277.608 81.5H284.448L273.828 101.93V113H267.753ZM294.704 113.54C292.544 113.54 290.594 113.045 288.854 112.055C287.144 111.035 285.779 109.64 284.759 107.87C283.769 106.07 283.274 104.015 283.274 101.705C283.274 99.335 283.769 97.265 284.759 95.495C285.779 93.695 287.159 92.3 288.899 91.31C290.639 90.29 292.589 89.78 294.749 89.78C296.939 89.78 298.889 90.29 300.599 91.31C302.339 92.3 303.704 93.695 304.694 95.495C305.714 97.265 306.224 99.32 306.224 101.66C306.224 104 305.714 106.07 304.694 107.87C303.704 109.64 302.339 111.035 300.599 112.055C298.859 113.045 296.894 113.54 294.704 113.54ZM294.704 108.275C295.724 108.275 296.624 108.035 297.404 107.555C298.214 107.075 298.844 106.34 299.294 105.35C299.774 104.36 300.014 103.13 300.014 101.66C300.014 100.19 299.774 98.975 299.294 98.015C298.844 97.025 298.214 96.29 297.404 95.81C296.624 95.3 295.739 95.045 294.749 95.045C293.789 95.045 292.904 95.3 292.094 95.81C291.284 96.29 290.639 97.025 290.159 98.015C289.709 98.975 289.484 100.19 289.484 101.66C289.484 103.13 289.709 104.36 290.159 105.35C290.639 106.34 291.269 107.075 292.049 107.555C292.859 108.035 293.744 108.275 294.704 108.275ZM319.92 113.54C318.09 113.54 316.515 113.165 315.195 112.415C313.905 111.635 312.915 110.51 312.225 109.04C311.535 107.54 311.19 105.695 311.19 103.505V90.32H317.265V102.875C317.265 104.705 317.64 106.085 318.39 107.015C319.17 107.945 320.355 108.41 321.945 108.41C322.965 108.41 323.865 108.185 324.645 107.735C325.425 107.255 326.04 106.58 326.49 105.71C326.97 104.81 327.21 103.715 327.21 102.425V90.32H333.24V113H327.93L327.435 109.31C326.775 110.6 325.8 111.635 324.51 112.415C323.22 113.165 321.69 113.54 319.92 113.54ZM339.19 113V90.32H344.59L345.175 94.505C345.715 93.515 346.39 92.675 347.2 91.985C348.04 91.295 348.985 90.755 350.035 90.365C351.115 89.975 352.3 89.78 353.59 89.78V96.215H351.52C350.62 96.215 349.78 96.32 349 96.53C348.25 96.74 347.59 97.085 347.02 97.565C346.45 98.015 346.015 98.645 345.715 99.455C345.415 100.265 345.265 101.285 345.265 102.515V113H339.19ZM382.459 113.54C379.309 113.54 376.594 112.865 374.314 111.515C372.064 110.135 370.324 108.23 369.094 105.8C367.894 103.34 367.294 100.505 367.294 97.295C367.294 94.085 367.894 91.25 369.094 88.79C370.324 86.33 372.064 84.41 374.314 83.03C376.594 81.65 379.309 80.96 382.459 80.96C386.269 80.96 389.389 81.905 391.819 83.795C394.249 85.685 395.764 88.355 396.364 91.805H389.749C389.359 90.125 388.534 88.82 387.274 87.89C386.044 86.93 384.424 86.45 382.414 86.45C380.554 86.45 378.949 86.9 377.599 87.8C376.279 88.67 375.259 89.915 374.539 91.535C373.819 93.125 373.459 95.045 373.459 97.295C373.459 99.515 373.819 101.435 374.539 103.055C375.259 104.675 376.279 105.92 377.599 106.79C378.949 107.66 380.554 108.095 382.414 108.095C384.424 108.095 386.044 107.66 387.274 106.79C388.504 105.89 389.314 104.645 389.704 103.055H396.364C395.764 106.325 394.249 108.89 391.819 110.75C389.389 112.61 386.269 113.54 382.459 113.54ZM401.416 113V80.6H407.491V113H401.416ZM413.548 113V90.32H419.623V113H413.548ZM416.608 87.215C415.528 87.215 414.628 86.9 413.908 86.27C413.218 85.61 412.873 84.785 412.873 83.795C412.873 82.805 413.218 81.995 413.908 81.365C414.628 80.705 415.528 80.375 416.608 80.375C417.718 80.375 418.618 80.705 419.308 81.365C420.028 81.995 420.388 82.805 420.388 83.795C420.388 84.785 420.028 85.61 419.308 86.27C418.618 86.9 417.718 87.215 416.608 87.215ZM436.652 113.54C434.372 113.54 432.347 113.06 430.577 112.1C428.837 111.11 427.472 109.745 426.482 108.005C425.522 106.235 425.042 104.195 425.042 101.885C425.042 99.515 425.522 97.43 426.482 95.63C427.472 93.8 428.837 92.375 430.577 91.355C432.317 90.305 434.342 89.78 436.652 89.78C438.902 89.78 440.867 90.275 442.547 91.265C444.227 92.255 445.532 93.59 446.462 95.27C447.392 96.95 447.857 98.855 447.857 100.985C447.857 101.285 447.857 101.63 447.857 102.02C447.857 102.38 447.827 102.755 447.767 103.145H429.362V99.455H441.737C441.647 97.985 441.122 96.83 440.162 95.99C439.232 95.15 438.062 94.73 436.652 94.73C435.632 94.73 434.687 94.97 433.817 95.45C432.947 95.9 432.257 96.605 431.747 97.565C431.267 98.525 431.027 99.74 431.027 101.21V102.515C431.027 103.745 431.252 104.825 431.702 105.755C432.182 106.655 432.842 107.36 433.682 107.87C434.522 108.35 435.497 108.59 436.607 108.59C437.717 108.59 438.632 108.35 439.352 107.87C440.102 107.39 440.657 106.775 441.017 106.025H447.227C446.807 107.435 446.102 108.71 445.112 109.85C444.122 110.99 442.907 111.89 441.467 112.55C440.027 113.21 438.422 113.54 436.652 113.54ZM452.832 113V90.32H458.187L458.637 94.01C459.327 92.75 460.302 91.73 461.562 90.95C462.852 90.17 464.382 89.78 466.152 89.78C468.042 89.78 469.632 90.17 470.922 90.95C472.212 91.73 473.187 92.87 473.847 94.37C474.537 95.87 474.882 97.715 474.882 99.905V113H468.852V100.49C468.852 98.69 468.462 97.31 467.682 96.35C466.932 95.39 465.762 94.91 464.172 94.91C463.152 94.91 462.237 95.15 461.427 95.63C460.647 96.11 460.032 96.8 459.582 97.7C459.132 98.57 458.907 99.635 458.907 100.895V113H452.832ZM490.821 113C489.231 113 487.836 112.76 486.636 112.28C485.466 111.77 484.551 110.945 483.891 109.805C483.231 108.635 482.901 107.045 482.901 105.035V95.405H479.031V90.32H482.901L483.576 84.155H488.976V90.32H494.961V95.405H488.976V105.125C488.976 106.145 489.201 106.85 489.651 107.24C490.101 107.63 490.866 107.825 491.946 107.825H494.916V113H490.821ZM507.229 81.5L502.594 93.02H498.454L500.884 81.5H507.229ZM518.44 113.54C516.37 113.54 514.57 113.21 513.04 112.55C511.51 111.89 510.31 110.975 509.44 109.805C508.57 108.635 508.075 107.315 507.955 105.845H513.985C514.135 106.415 514.39 106.94 514.75 107.42C515.11 107.87 515.59 108.23 516.19 108.5C516.79 108.77 517.51 108.905 518.35 108.905C519.16 108.905 519.82 108.8 520.33 108.59C520.84 108.35 521.215 108.035 521.455 107.645C521.725 107.255 521.86 106.85 521.86 106.43C521.86 105.8 521.68 105.32 521.32 104.99C520.96 104.63 520.435 104.345 519.745 104.135C519.055 103.925 518.215 103.715 517.225 103.505C516.145 103.295 515.08 103.04 514.03 102.74C513.01 102.41 512.095 102.005 511.285 101.525C510.475 101.045 509.83 100.43 509.35 99.68C508.87 98.93 508.63 98 508.63 96.89C508.63 95.54 508.99 94.34 509.71 93.29C510.43 92.21 511.48 91.355 512.86 90.725C514.24 90.095 515.905 89.78 517.855 89.78C520.585 89.78 522.745 90.395 524.335 91.625C525.925 92.855 526.87 94.55 527.17 96.71H521.455C521.275 96.02 520.87 95.48 520.24 95.09C519.64 94.67 518.83 94.46 517.81 94.46C516.73 94.46 515.905 94.655 515.335 95.045C514.765 95.435 514.48 95.945 514.48 96.575C514.48 96.995 514.66 97.37 515.02 97.7C515.41 98.03 515.95 98.315 516.64 98.555C517.33 98.765 518.17 98.975 519.16 99.185C520.9 99.545 522.43 99.965 523.75 100.445C525.07 100.895 526.105 101.555 526.855 102.425C527.605 103.265 527.98 104.495 527.98 106.115C527.98 107.555 527.59 108.845 526.81 109.985C526.03 111.095 524.92 111.965 523.48 112.595C522.07 113.225 520.39 113.54 518.44 113.54ZM543.846 113V81.5H556.761C558.951 81.5 560.796 81.845 562.296 82.535C563.796 83.225 564.921 84.185 565.671 85.415C566.451 86.615 566.841 88.01 566.841 89.6C566.841 91.19 566.496 92.525 565.806 93.605C565.116 94.685 564.201 95.525 563.061 96.125C561.951 96.695 560.721 97.025 559.371 97.115L560.091 96.62C561.531 96.68 562.806 97.07 563.916 97.79C565.056 98.48 565.941 99.41 566.571 100.58C567.231 101.75 567.561 103.025 567.561 104.405C567.561 106.085 567.156 107.57 566.346 108.86C565.536 110.15 564.366 111.17 562.836 111.92C561.306 112.64 559.431 113 557.211 113H543.846ZM549.921 108.05H556.221C557.871 108.05 559.146 107.675 560.046 106.925C560.946 106.175 561.396 105.095 561.396 103.685C561.396 102.275 560.931 101.18 560.001 100.4C559.071 99.59 557.781 99.185 556.131 99.185H549.921V108.05ZM549.921 94.64H555.771C557.361 94.64 558.561 94.28 559.371 93.56C560.211 92.84 560.631 91.82 560.631 90.5C560.631 89.21 560.211 88.205 559.371 87.485C558.561 86.735 557.346 86.36 555.726 86.36H549.921V94.64ZM580.868 113.54C579.038 113.54 577.463 113.165 576.143 112.415C574.853 111.635 573.863 110.51 573.173 109.04C572.483 107.54 572.138 105.695 572.138 103.505V90.32H578.213V102.875C578.213 104.705 578.588 106.085 579.338 107.015C580.118 107.945 581.303 108.41 582.893 108.41C583.913 108.41 584.813 108.185 585.593 107.735C586.373 107.255 586.988 106.58 587.438 105.71C587.918 104.81 588.158 103.715 588.158 102.425V90.32H594.188V113H588.878L588.383 109.31C587.723 110.6 586.748 111.635 585.458 112.415C584.168 113.165 582.638 113.54 580.868 113.54ZM609.407 113.54C607.337 113.54 605.537 113.21 604.007 112.55C602.477 111.89 601.277 110.975 600.407 109.805C599.537 108.635 599.042 107.315 598.922 105.845H604.952C605.102 106.415 605.357 106.94 605.717 107.42C606.077 107.87 606.557 108.23 607.157 108.5C607.757 108.77 608.477 108.905 609.317 108.905C610.127 108.905 610.787 108.8 611.297 108.59C611.807 108.35 612.182 108.035 612.422 107.645C612.692 107.255 612.827 106.85 612.827 106.43C612.827 105.8 612.647 105.32 612.287 104.99C611.927 104.63 611.402 104.345 610.712 104.135C610.022 103.925 609.182 103.715 608.192 103.505C607.112 103.295 606.047 103.04 604.997 102.74C603.977 102.41 603.062 102.005 602.252 101.525C601.442 101.045 600.797 100.43 600.317 99.68C599.837 98.93 599.597 98 599.597 96.89C599.597 95.54 599.957 94.34 600.677 93.29C601.397 92.21 602.447 91.355 603.827 90.725C605.207 90.095 606.872 89.78 608.822 89.78C611.552 89.78 613.712 90.395 615.302 91.625C616.892 92.855 617.837 94.55 618.137 96.71H612.422C612.242 96.02 611.837 95.48 611.207 95.09C610.607 94.67 609.797 94.46 608.777 94.46C607.697 94.46 606.872 94.655 606.302 95.045C605.732 95.435 605.447 95.945 605.447 96.575C605.447 96.995 605.627 97.37 605.987 97.7C606.377 98.03 606.917 98.315 607.607 98.555C608.297 98.765 609.137 98.975 610.127 99.185C611.867 99.545 613.397 99.965 614.717 100.445C616.037 100.895 617.072 101.555 617.822 102.425C618.572 103.265 618.947 104.495 618.947 106.115C618.947 107.555 618.557 108.845 617.777 109.985C616.997 111.095 615.887 111.965 614.447 112.595C613.037 113.225 611.357 113.54 609.407 113.54ZM624.222 113V90.32H630.297V113H624.222ZM627.282 87.215C626.202 87.215 625.302 86.9 624.582 86.27C623.892 85.61 623.547 84.785 623.547 83.795C623.547 82.805 623.892 81.995 624.582 81.365C625.302 80.705 626.202 80.375 627.282 80.375C628.392 80.375 629.292 80.705 629.982 81.365C630.702 81.995 631.062 82.805 631.062 83.795C631.062 84.785 630.702 85.61 629.982 86.27C629.292 86.9 628.392 87.215 627.282 87.215ZM636.436 113V90.32H641.791L642.241 94.01C642.931 92.75 643.906 91.73 645.166 90.95C646.456 90.17 647.986 89.78 649.756 89.78C651.646 89.78 653.236 90.17 654.526 90.95C655.816 91.73 656.791 92.87 657.451 94.37C658.141 95.87 658.486 97.715 658.486 99.905V113H652.456V100.49C652.456 98.69 652.066 97.31 651.286 96.35C650.536 95.39 649.366 94.91 647.776 94.91C646.756 94.91 645.841 95.15 645.031 95.63C644.251 96.11 643.636 96.8 643.186 97.7C642.736 98.57 642.511 99.635 642.511 100.895V113H636.436ZM675.099 113.54C672.819 113.54 670.794 113.06 669.024 112.1C667.284 111.11 665.919 109.745 664.929 108.005C663.969 106.235 663.489 104.195 663.489 101.885C663.489 99.515 663.969 97.43 664.929 95.63C665.919 93.8 667.284 92.375 669.024 91.355C670.764 90.305 672.789 89.78 675.099 89.78C677.349 89.78 679.314 90.275 680.994 91.265C682.674 92.255 683.979 93.59 684.909 95.27C685.839 96.95 686.304 98.855 686.304 100.985C686.304 101.285 686.304 101.63 686.304 102.02C686.304 102.38 686.274 102.755 686.214 103.145H667.809V99.455H680.184C680.094 97.985 679.569 96.83 678.609 95.99C677.679 95.15 676.509 94.73 675.099 94.73C674.079 94.73 673.134 94.97 672.264 95.45C671.394 95.9 670.704 96.605 670.194 97.565C669.714 98.525 669.474 99.74 669.474 101.21V102.515C669.474 103.745 669.699 104.825 670.149 105.755C670.629 106.655 671.289 107.36 672.129 107.87C672.969 108.35 673.944 108.59 675.054 108.59C676.164 108.59 677.079 108.35 677.799 107.87C678.549 107.39 679.104 106.775 679.464 106.025H685.674C685.254 107.435 684.549 108.71 683.559 109.85C682.569 110.99 681.354 111.89 679.914 112.55C678.474 113.21 676.869 113.54 675.099 113.54ZM700.55 113.54C698.48 113.54 696.68 113.21 695.15 112.55C693.62 111.89 692.42 110.975 691.55 109.805C690.68 108.635 690.185 107.315 690.065 105.845H696.095C696.245 106.415 696.5 106.94 696.86 107.42C697.22 107.87 697.7 108.23 698.3 108.5C698.9 108.77 699.62 108.905 700.46 108.905C701.27 108.905 701.93 108.8 702.44 108.59C702.95 108.35 703.325 108.035 703.565 107.645C703.835 107.255 703.97 106.85 703.97 106.43C703.97 105.8 703.79 105.32 703.43 104.99C703.07 104.63 702.545 104.345 701.855 104.135C701.165 103.925 700.325 103.715 699.335 103.505C698.255 103.295 697.19 103.04 696.14 102.74C695.12 102.41 694.205 102.005 693.395 101.525C692.585 101.045 691.94 100.43 691.46 99.68C690.98 98.93 690.74 98 690.74 96.89C690.74 95.54 691.1 94.34 691.82 93.29C692.54 92.21 693.59 91.355 694.97 90.725C696.35 90.095 698.015 89.78 699.965 89.78C702.695 89.78 704.855 90.395 706.445 91.625C708.035 92.855 708.98 94.55 709.28 96.71H703.565C703.385 96.02 702.98 95.48 702.35 95.09C701.75 94.67 700.94 94.46 699.92 94.46C698.84 94.46 698.015 94.655 697.445 95.045C696.875 95.435 696.59 95.945 696.59 96.575C696.59 96.995 696.77 97.37 697.13 97.7C697.52 98.03 698.06 98.315 698.75 98.555C699.44 98.765 700.28 98.975 701.27 99.185C703.01 99.545 704.54 99.965 705.86 100.445C707.18 100.895 708.215 101.555 708.965 102.425C709.715 103.265 710.09 104.495 710.09 106.115C710.09 107.555 709.7 108.845 708.92 109.985C708.14 111.095 707.03 111.965 705.59 112.595C704.18 113.225 702.5 113.54 700.55 113.54ZM724.5 113.54C722.43 113.54 720.63 113.21 719.1 112.55C717.57 111.89 716.37 110.975 715.5 109.805C714.63 108.635 714.135 107.315 714.015 105.845H720.045C720.195 106.415 720.45 106.94 720.81 107.42C721.17 107.87 721.65 108.23 722.25 108.5C722.85 108.77 723.57 108.905 724.41 108.905C725.22 108.905 725.88 108.8 726.39 108.59C726.9 108.35 727.275 108.035 727.515 107.645C727.785 107.255 727.92 106.85 727.92 106.43C727.92 105.8 727.74 105.32 727.38 104.99C727.02 104.63 726.495 104.345 725.805 104.135C725.115 103.925 724.275 103.715 723.285 103.505C722.205 103.295 721.14 103.04 720.09 102.74C719.07 102.41 718.155 102.005 717.345 101.525C716.535 101.045 715.89 100.43 715.41 99.68C714.93 98.93 714.69 98 714.69 96.89C714.69 95.54 715.05 94.34 715.77 93.29C716.49 92.21 717.54 91.355 718.92 90.725C720.3 90.095 721.965 89.78 723.915 89.78C726.645 89.78 728.805 90.395 730.395 91.625C731.985 92.855 732.93 94.55 733.23 96.71H727.515C727.335 96.02 726.93 95.48 726.3 95.09C725.7 94.67 724.89 94.46 723.87 94.46C722.79 94.46 721.965 94.655 721.395 95.045C720.825 95.435 720.54 95.945 720.54 96.575C720.54 96.995 720.72 97.37 721.08 97.7C721.47 98.03 722.01 98.315 722.7 98.555C723.39 98.765 724.23 98.975 725.22 99.185C726.96 99.545 728.49 99.965 729.81 100.445C731.13 100.895 732.165 101.555 732.915 102.425C733.665 103.265 734.04 104.495 734.04 106.115C734.04 107.555 733.65 108.845 732.87 109.985C732.09 111.095 730.98 111.965 729.54 112.595C728.13 113.225 726.45 113.54 724.5 113.54ZM740.575 102.74L739.9 81.5H746.425L745.75 102.74H740.575ZM743.185 113.225C742.075 113.225 741.16 112.895 740.44 112.235C739.75 111.545 739.405 110.705 739.405 109.715C739.405 108.725 739.75 107.9 740.44 107.24C741.16 106.55 742.075 106.205 743.185 106.205C744.295 106.205 745.195 106.55 745.885 107.24C746.575 107.9 746.92 108.725 746.92 109.715C746.92 110.705 746.575 111.545 745.885 112.235C745.195 112.895 744.295 113.225 743.185 113.225Z" fill="white"/>
</svg>
