<svg width="56" height="60" viewBox="0 0 56 60" fill="none" xmlns="http://www.w3.org/2000/svg">
<path d="M22.6221 14.3226L24.67 22.7082" stroke="#FA7596" stroke-width="3.83647" stroke-linecap="round" stroke-linejoin="round"/>
<path d="M36.3757 38.7403L28.6537 46.578C26.6937 48.5673 23.3113 47.634 22.6487 44.9211L20.1012 34.49C19.4635 31.8793 21.8332 29.5281 24.4389 30.1861L34.7084 32.7795C37.381 33.4545 38.3103 36.7767 36.3757 38.7403Z" fill="url(#paint0_linear_36_1030)"/>
<path d="M25.9072 8.91323C26.4937 11.3146 25.0224 13.7367 22.621 14.3232C20.2196 14.9097 17.7975 13.4384 17.211 11.037C16.6245 8.63564 18.0958 6.21352 20.4972 5.62705C22.8986 5.04056 25.3207 6.51182 25.9072 8.91323Z" stroke="#C71DFF" stroke-width="3.83647" stroke-linecap="round" stroke-linejoin="round"/>
<path d="M10.0123 51.6292L5.99217 35.1683C4.98678 31.0516 7.50896 26.8994 11.6256 25.894L37.7141 19.5225C41.8309 18.5171 45.983 21.0393 46.9884 25.156L51.0086 41.6169C52.014 45.7336 49.4919 49.8857 45.3751 50.8911L19.2866 57.2626C15.17 58.268 11.0178 55.7459 10.0123 51.6292Z" stroke="url(#paint1_linear_36_1030)" stroke-width="3.83647" stroke-linecap="round" stroke-linejoin="round"/>
<path d="M38.67 5.4475C38.7722 4.89316 39.4814 4.71994 39.8276 5.16479L41.3019 7.05934C41.4002 7.18568 41.5415 7.2715 41.6989 7.30051L44.0598 7.73551C44.6141 7.83765 44.7873 8.54694 44.3425 8.8931L42.4479 10.3674C42.3216 10.4657 42.2358 10.607 42.2068 10.7644L41.7718 13.1253C41.6696 13.6796 40.9603 13.8528 40.6142 13.408L39.1399 11.5134C39.0416 11.3871 38.9003 11.3013 38.7429 11.2723L36.382 10.8373C35.8277 10.7351 35.6545 10.0258 36.0993 9.67966L37.9939 8.20539C38.1202 8.10707 38.206 7.96578 38.235 7.80835L38.67 5.4475Z" fill="#C71DFF"/>
<defs>
<linearGradient id="paint0_linear_36_1030" x1="28.4587" y1="26.3515" x2="33.9287" y2="48.7487" gradientUnits="userSpaceOnUse">
<stop stop-color="#C08AFF"/>
<stop offset="1" stop-color="#FA7596"/>
</linearGradient>
<linearGradient id="paint1_linear_36_1030" x1="24.6699" y1="22.7083" x2="32.3309" y2="54.0769" gradientUnits="userSpaceOnUse">
<stop stop-color="#C71DFF"/>
<stop offset="1" stop-color="#B79EFF"/>
</linearGradient>
</defs>
</svg>
