<svg width="237" height="60" viewBox="0 0 237 60" fill="none" xmlns="http://www.w3.org/2000/svg">
<path d="M61.3131 32.8787C61.3131 30.9449 61.7492 29.2101 62.6213 27.6744C63.4934 26.1197 64.6784 24.9063 66.1762 24.0342C67.6929 23.162 69.3708 22.726 71.2099 22.726C73.3713 22.726 75.2577 23.2473 76.8693 24.2901C78.4808 25.3329 79.6563 26.8117 80.3957 28.7266H77.2959C76.746 27.5322 75.9498 26.6126 74.907 25.968C73.8832 25.3234 72.6508 25.0011 71.2099 25.0011C69.8259 25.0011 68.584 25.3234 67.4844 25.968C66.3847 26.6126 65.5221 27.5322 64.8964 28.7266C64.2708 29.9021 63.9579 31.2861 63.9579 32.8787C63.9579 34.4524 64.2708 35.8364 64.8964 37.0308C65.5221 38.2063 66.3847 39.1164 67.4844 39.761C68.584 40.4056 69.8259 40.7279 71.2099 40.7279C72.6508 40.7279 73.8832 40.4151 74.907 39.7894C75.9498 39.1448 76.746 38.2253 77.2959 37.0308H80.3957C79.6563 38.9268 78.4808 40.3961 76.8693 41.4389C75.2577 42.4627 73.3713 42.9746 71.2099 42.9746C69.3708 42.9746 67.6929 42.548 66.1762 41.6948C64.6784 40.8227 63.4934 39.6188 62.6213 38.0831C61.7492 36.5474 61.3131 34.8126 61.3131 32.8787ZM86.8361 21.759V42.804H84.2481V21.759H86.8361ZM92.5834 24.6883C92.0905 24.6883 91.6734 24.5176 91.3321 24.1764C90.9909 23.8351 90.8202 23.418 90.8202 22.925C90.8202 22.4321 90.9909 22.015 91.3321 21.6737C91.6734 21.3324 92.0905 21.1618 92.5834 21.1618C93.0574 21.1618 93.4556 21.3324 93.7779 21.6737C94.1192 22.015 94.2898 22.4321 94.2898 22.925C94.2898 23.418 94.1192 23.8351 93.7779 24.1764C93.4556 24.5176 93.0574 24.6883 92.5834 24.6883ZM93.8348 27.2193V42.804H91.2468V27.2193H93.8348ZM100.833 30.0917C101.345 29.2006 102.104 28.4612 103.109 27.8734C104.132 27.2667 105.317 26.9634 106.663 26.9634C108.048 26.9634 109.299 27.2952 110.417 27.9588C111.555 28.6223 112.446 29.5608 113.091 30.7742C113.735 31.9687 114.058 33.3622 114.058 34.9548C114.058 36.5284 113.735 37.9314 113.091 39.1638C112.446 40.3961 111.555 41.3536 110.417 42.0361C109.299 42.7187 108.048 43.0599 106.663 43.0599C105.336 43.0599 104.161 42.7661 103.137 42.1783C102.132 41.5716 101.364 40.8227 100.833 39.9316V50.1981H98.2455V27.2193H100.833V30.0917ZM111.413 34.9548C111.413 33.7793 111.176 32.7555 110.702 31.8834C110.228 31.0112 109.583 30.3476 108.768 29.8926C107.972 29.4376 107.09 29.2101 106.123 29.2101C105.175 29.2101 104.294 29.4471 103.478 29.9211C102.682 30.3761 102.037 31.0491 101.544 31.9402C101.07 32.8124 100.833 33.8267 100.833 34.9832C100.833 36.1587 101.07 37.192 101.544 38.0831C102.037 38.9552 102.682 39.6283 103.478 40.1023C104.294 40.5573 105.175 40.7848 106.123 40.7848C107.09 40.7848 107.972 40.5573 108.768 40.1023C109.583 39.6283 110.228 38.9552 110.702 38.0831C111.176 37.192 111.413 36.1492 111.413 34.9548ZM122.981 43.0599C121.787 43.0599 120.716 42.8608 119.768 42.4627C118.82 42.0456 118.071 41.4768 117.521 40.7564C116.971 40.0169 116.668 39.1732 116.611 38.2253H119.284C119.36 39.0026 119.72 39.6377 120.365 40.1307C121.028 40.6236 121.891 40.8701 122.953 40.8701C123.939 40.8701 124.716 40.6521 125.285 40.216C125.854 39.7799 126.138 39.2301 126.138 38.5665C126.138 37.884 125.835 37.3816 125.228 37.0593C124.621 36.718 123.683 36.3862 122.413 36.0639C121.256 35.7606 120.308 35.4572 119.569 35.1538C118.848 34.8315 118.222 34.367 117.692 33.7603C117.18 33.1347 116.924 32.3194 116.924 31.3146C116.924 30.5183 117.161 29.7883 117.635 29.1248C118.109 28.4612 118.782 27.9398 119.654 27.5606C120.526 27.1625 121.521 26.9634 122.64 26.9634C124.365 26.9634 125.759 27.3995 126.821 28.2716C127.882 29.1437 128.451 30.3382 128.527 31.8549H125.939C125.882 31.0397 125.55 30.3856 124.944 29.8926C124.356 29.3997 123.56 29.1532 122.555 29.1532C121.626 29.1532 120.886 29.3523 120.336 29.7504C119.787 30.1486 119.512 30.6699 119.512 31.3146C119.512 31.8265 119.673 32.2531 119.995 32.5943C120.336 32.9166 120.754 33.1821 121.247 33.3906C121.758 33.5802 122.46 33.7983 123.351 34.0447C124.47 34.3481 125.38 34.6514 126.081 34.9548C126.783 35.2392 127.38 35.6752 127.873 36.263C128.385 36.8507 128.65 37.6186 128.669 38.5665C128.669 39.4197 128.432 40.1876 127.958 40.8701C127.484 41.5526 126.811 42.093 125.939 42.4911C125.086 42.8703 124.1 43.0599 122.981 43.0599ZM152.429 23.1241V42.804H149.841V28.1294L143.3 42.804H141.48L134.91 28.101V42.804H132.322V23.1241H135.109L142.39 39.3913L149.67 23.1241H152.429ZM155.851 34.9548C155.851 33.3622 156.173 31.9687 156.818 30.7742C157.462 29.5608 158.344 28.6223 159.463 27.9588C160.6 27.2952 161.861 26.9634 163.245 26.9634C164.61 26.9634 165.795 27.2573 166.8 27.845C167.805 28.4327 168.554 29.1722 169.047 30.0632V27.2193H171.663V42.804H169.047V39.9032C168.535 40.8132 167.767 41.5716 166.743 42.1783C165.738 42.7661 164.563 43.0599 163.217 43.0599C161.833 43.0599 160.581 42.7187 159.463 42.0361C158.344 41.3536 157.462 40.3961 156.818 39.1638C156.173 37.9314 155.851 36.5284 155.851 34.9548ZM169.047 34.9832C169.047 33.8077 168.81 32.7839 168.336 31.9118C167.862 31.0397 167.217 30.3761 166.402 29.9211C165.606 29.4471 164.724 29.2101 163.757 29.2101C162.79 29.2101 161.908 29.4376 161.112 29.8926C160.316 30.3476 159.681 31.0112 159.207 31.8834C158.733 32.7555 158.496 33.7793 158.496 34.9548C158.496 36.1492 158.733 37.192 159.207 38.0831C159.681 38.9552 160.316 39.6283 161.112 40.1023C161.908 40.5573 162.79 40.7848 163.757 40.7848C164.724 40.7848 165.606 40.5573 166.402 40.1023C167.217 39.6283 167.862 38.9552 168.336 38.0831C168.81 37.192 169.047 36.1587 169.047 34.9832ZM179.193 29.3523V38.5381C179.193 39.2965 179.354 39.8368 179.677 40.1591C179.999 40.4625 180.558 40.6142 181.355 40.6142H183.26V42.804H180.928C179.487 42.804 178.406 42.4722 177.686 41.8086C176.965 41.145 176.605 40.0549 176.605 38.5381V29.3523H174.586V27.2193H176.605V23.2947H179.193V27.2193H183.26V29.3523H179.193ZM200.615 34.4144C200.615 34.9074 200.587 35.4288 200.53 35.9786H188.074C188.168 37.5143 188.69 38.7182 189.638 39.5904C190.605 40.4435 191.771 40.8701 193.136 40.8701C194.254 40.8701 195.183 40.6142 195.923 40.1023C196.681 39.5714 197.212 38.8699 197.515 37.9978H200.302C199.885 39.4956 199.051 40.7184 197.8 41.6664C196.548 42.5954 194.994 43.0599 193.136 43.0599C191.657 43.0599 190.33 42.7281 189.154 42.0646C187.998 41.401 187.088 40.4625 186.424 39.2491C185.76 38.0167 185.429 36.5948 185.429 34.9832C185.429 33.3717 185.751 31.9592 186.396 30.7458C187.04 29.5324 187.941 28.6034 189.097 27.9588C190.273 27.2952 191.619 26.9634 193.136 26.9634C194.615 26.9634 195.923 27.2857 197.06 27.9303C198.198 28.5749 199.07 29.466 199.677 30.6036C200.302 31.7222 200.615 32.9925 200.615 34.4144ZM197.942 33.8741C197.942 32.8882 197.724 32.0445 197.288 31.343C196.852 30.6226 196.255 30.0822 195.496 29.722C194.757 29.3428 193.932 29.1532 193.022 29.1532C191.714 29.1532 190.595 29.5703 189.666 30.4045C188.756 31.2387 188.235 32.3953 188.102 33.8741H197.942Z" fill="white"/>
<path d="M223.33 38.3959H214.685L213.092 42.804H210.362L217.528 23.0957H220.515L227.653 42.804H224.923L223.33 38.3959ZM222.591 36.2914L219.007 26.2808L215.424 36.2914H222.591ZM233.364 22.9819V42.804H230.776V22.9819H233.364Z" fill="#B79EFF"/>
<path d="M22.6221 14.3226L24.67 22.7082" stroke="#FA7596" stroke-width="3.83647" stroke-linecap="round" stroke-linejoin="round"/>
<path d="M36.3757 38.7403L28.6537 46.578C26.6937 48.5673 23.3113 47.634 22.6487 44.9211L20.1012 34.49C19.4635 31.8793 21.8332 29.5281 24.4389 30.1861L34.7084 32.7795C37.381 33.4545 38.3103 36.7767 36.3757 38.7403Z" fill="url(#paint0_linear_36_1024)"/>
<path d="M25.9072 8.91323C26.4937 11.3146 25.0224 13.7367 22.621 14.3232C20.2196 14.9097 17.7975 13.4384 17.211 11.037C16.6245 8.63564 18.0958 6.21352 20.4972 5.62705C22.8986 5.04056 25.3207 6.51182 25.9072 8.91323Z" stroke="#C71DFF" stroke-width="3.83647" stroke-linecap="round" stroke-linejoin="round"/>
<path d="M10.0123 51.6292L5.99217 35.1683C4.98678 31.0516 7.50896 26.8994 11.6256 25.894L37.7141 19.5225C41.8309 18.5171 45.983 21.0393 46.9884 25.156L51.0086 41.6169C52.014 45.7336 49.4919 49.8857 45.3751 50.8911L19.2866 57.2626C15.17 58.268 11.0178 55.7459 10.0123 51.6292Z" stroke="url(#paint1_linear_36_1024)" stroke-width="3.83647" stroke-linecap="round" stroke-linejoin="round"/>
<path d="M38.67 5.4475C38.7722 4.89316 39.4814 4.71994 39.8276 5.16479L41.3019 7.05934C41.4002 7.18568 41.5415 7.2715 41.6989 7.30051L44.0598 7.73551C44.6141 7.83765 44.7873 8.54694 44.3425 8.8931L42.4479 10.3674C42.3216 10.4657 42.2358 10.607 42.2068 10.7644L41.7718 13.1253C41.6696 13.6796 40.9603 13.8528 40.6142 13.408L39.1399 11.5134C39.0416 11.3871 38.9003 11.3013 38.7429 11.2723L36.382 10.8373C35.8277 10.7351 35.6545 10.0258 36.0993 9.67966L37.9939 8.20539C38.1202 8.10707 38.206 7.96578 38.235 7.80835L38.67 5.4475Z" fill="#C71DFF"/>
<defs>
<linearGradient id="paint0_linear_36_1024" x1="28.4587" y1="26.3515" x2="33.9287" y2="48.7487" gradientUnits="userSpaceOnUse">
<stop stop-color="#C08AFF"/>
<stop offset="1" stop-color="#FA7596"/>
</linearGradient>
<linearGradient id="paint1_linear_36_1024" x1="24.6699" y1="22.7083" x2="32.3309" y2="54.0769" gradientUnits="userSpaceOnUse">
<stop stop-color="#C71DFF"/>
<stop offset="1" stop-color="#B79EFF"/>
</linearGradient>
</defs>
</svg>
