<svg width="96" height="20" viewBox="0 0 96 20" fill="none" xmlns="http://www.w3.org/2000/svg">
<path d="M8.84054 1.86978C9.09096 1.21437 10.0182 1.21437 10.2686 1.86978L11.7692 5.79737C11.8773 6.08018 12.1421 6.27256 12.4444 6.28794L16.6435 6.50143C17.3442 6.53706 17.6308 7.4189 17.0848 7.85959L13.8132 10.5005C13.5776 10.6906 13.4764 11.0019 13.5553 11.2942L14.6498 15.3538C14.8325 16.0312 14.0823 16.5762 13.4945 16.1931L9.97187 13.8977C9.71822 13.7324 9.39092 13.7324 9.13726 13.8977L5.61464 16.1931C5.02681 16.5762 4.27668 16.0312 4.45933 15.3538L5.55387 11.2942C5.63268 11.0019 5.53154 10.6906 5.29596 10.5005L2.02432 7.85959C1.47838 7.4189 1.7649 6.53706 2.46561 6.50143L6.6647 6.28794C6.96706 6.27256 7.23185 6.08018 7.33991 5.79737L8.84054 1.86978Z" fill="#FCB236"/>
<path d="M27.949 1.86929C28.1994 1.21388 29.1266 1.21388 29.377 1.86929L30.8777 5.79688C30.9857 6.07969 31.2505 6.27208 31.5529 6.28745L35.7519 6.50095C36.4527 6.53657 36.7392 7.41841 36.1932 7.8591L32.9216 10.5C32.686 10.6901 32.5849 11.0014 32.6637 11.2937L33.7582 15.3533C33.9409 16.0307 33.1907 16.5757 32.6029 16.1927L29.0803 13.8972C28.8266 13.7319 28.4993 13.7319 28.2457 13.8972L24.7231 16.1927C24.1352 16.5757 23.3851 16.0307 23.5678 15.3533L24.6623 11.2937C24.7411 11.0014 24.64 10.6901 24.4044 10.5L21.1328 7.8591C20.5868 7.41841 20.8733 6.53657 21.574 6.50095L25.7731 6.28745C26.0755 6.27208 26.3403 6.07969 26.4483 5.79688L27.949 1.86929Z" fill="#FCB236"/>
<path d="M47.059 1.87026C47.3094 1.21486 48.2366 1.21486 48.487 1.87026L49.9876 5.79786C50.0957 6.08067 50.3605 6.27305 50.6628 6.28843L54.8619 6.50192C55.5626 6.53755 55.8492 7.41938 55.3032 7.86007L52.0316 10.501C51.796 10.6911 51.6949 11.0024 51.7737 11.2947L52.8682 15.3543C53.0509 16.0317 52.3007 16.5767 51.7129 16.1936L48.1903 13.8982C47.9366 13.7329 47.6093 13.7329 47.3557 13.8982L43.8331 16.1936C43.2452 16.5767 42.4951 16.0317 42.6777 15.3543L43.7723 11.2947C43.8511 11.0024 43.75 10.6911 43.5144 10.501L40.2427 7.86007C39.6968 7.41938 39.9833 6.53755 40.684 6.50192L44.8831 6.28843C45.1855 6.27305 45.4503 6.08067 45.5583 5.79786L47.059 1.87026Z" fill="#FCB236"/>
<path d="M66.1674 1.8688C66.4179 1.21339 67.3451 1.21339 67.5955 1.8688L69.0961 5.79639C69.2042 6.0792 69.469 6.27159 69.7713 6.28696L73.9704 6.50046C74.6711 6.53608 74.9577 7.41792 74.4117 7.85861L71.1401 10.4995C70.9045 10.6897 70.8034 11.0009 70.8822 11.2932L71.9767 15.3528C72.1594 16.0302 71.4092 16.5752 70.8214 16.1922L67.2988 13.8967C67.0451 13.7314 66.7178 13.7315 66.4642 13.8967L62.9415 16.1922C62.3537 16.5752 61.6036 16.0302 61.7862 15.3528L62.8808 11.2932C62.9596 11.0009 62.8584 10.6897 62.6229 10.4995L59.3512 7.85861C58.8053 7.41792 59.0918 6.53608 59.7925 6.50046L63.9916 6.28696C64.294 6.27159 64.5588 6.0792 64.6668 5.79639L66.1674 1.8688Z" fill="#FCB236"/>
<path d="M85.2775 1.86929C85.5279 1.21388 86.4551 1.21388 86.7055 1.86929L88.2062 5.79688C88.3142 6.07969 88.579 6.27208 88.8814 6.28745L93.0805 6.50095C93.7812 6.53657 94.0677 7.41841 93.5218 7.8591L90.2501 10.5C90.0145 10.6901 89.9134 11.0014 89.9922 11.2937L91.0868 15.3533C91.2694 16.0307 90.5193 16.5757 89.9314 16.1927L86.4088 13.8972C86.1552 13.7319 85.8279 13.7319 85.5742 13.8972L82.0516 16.1927C81.4638 16.5757 80.7136 16.0307 80.8963 15.3533L81.9908 11.2937C82.0696 11.0014 81.9685 10.6901 81.7329 10.5L78.4613 7.8591C77.9153 7.41841 78.2019 6.53657 78.9026 6.50095L83.1016 6.28745C83.404 6.27208 83.6688 6.07969 83.7769 5.79688L85.2775 1.86929Z" fill="#FCB236"/>
</svg>
