<svg width="588" height="69" viewBox="0 0 588 69" fill="none" xmlns="http://www.w3.org/2000/svg">
<path d="M2.83224 44L9.966 24.5695H12.9916L20.1254 44H17.1553L11.4649 27.9005L5.74681 44H2.83224ZM6.05215 39.1979L6.82937 36.9773H15.9617L16.7389 39.1979H6.05215ZM22.755 44V30.0101H25.2532L25.4197 32.3972C25.8639 31.5645 26.493 30.9076 27.3073 30.4264C28.1215 29.9268 29.056 29.677 30.1108 29.677C31.2211 29.677 32.1741 29.899 32.9699 30.3432C33.7656 30.7873 34.3855 31.4627 34.8296 32.3695C35.2738 33.2577 35.4958 34.3773 35.4958 35.7282V44H32.72V36.0057C32.72 34.7104 32.4332 33.7296 31.8595 33.0634C31.2859 32.3972 30.4531 32.0641 29.3613 32.0641C28.6396 32.0641 27.992 32.2399 27.4183 32.5915C26.8446 32.9246 26.382 33.4243 26.0304 34.0905C25.6973 34.7566 25.5308 35.5709 25.5308 36.5331V44H22.755ZM45.2642 44.3331C43.9318 44.3331 42.7567 44.0185 41.7389 43.3893C40.7212 42.7416 39.9254 41.8719 39.3518 40.7801C38.7966 39.6698 38.519 38.4114 38.519 37.005C38.519 35.5801 38.7966 34.3218 39.3518 33.23C39.9254 32.1382 40.7212 31.2777 41.7389 30.6485C42.7752 30.0008 43.9596 29.677 45.2919 29.677C46.3837 29.677 47.346 29.899 48.1788 30.3432C49.0115 30.7688 49.6592 31.3794 50.1218 32.1752V24.0144H52.8976V44H50.3994L50.1218 41.8349C49.8442 42.2605 49.4834 42.6676 49.0392 43.0562C48.5951 43.4263 48.0585 43.7317 47.4293 43.9722C46.8001 44.2128 46.0784 44.3331 45.2642 44.3331ZM45.7083 41.9182C46.5781 41.9182 47.346 41.7146 48.0122 41.3075C48.6784 40.9004 49.1873 40.3267 49.5389 39.5865C49.909 38.8463 50.094 37.9858 50.094 37.005C50.094 36.0243 49.909 35.173 49.5389 34.4513C49.1873 33.7111 48.6784 33.1374 48.0122 32.7303C47.346 32.3047 46.5781 32.0919 45.7083 32.0919C44.8756 32.0919 44.1261 32.3047 43.4599 32.7303C42.7937 33.1374 42.2756 33.7111 41.9055 34.4513C41.5354 35.173 41.3503 36.0243 41.3503 37.005C41.3503 37.9858 41.5354 38.8463 41.9055 39.5865C42.2756 40.3267 42.7937 40.9004 43.4599 41.3075C44.1261 41.7146 44.8756 41.9182 45.7083 41.9182ZM67.9035 44L62.6295 24.5695H65.5996L69.5412 40.7523L74.0657 24.5695H77.1469L81.5326 40.8079L85.5297 24.5695H88.4998L83.1425 44H79.8949L75.5369 28.5389L71.0679 44H67.9035ZM91.1194 44V24.0144H93.8952V32.2862C94.3579 31.472 94.9963 30.8335 95.8105 30.3709C96.6432 29.9083 97.5593 29.677 98.5585 29.677C99.6688 29.677 100.622 29.9083 101.418 30.3709C102.213 30.815 102.824 31.4905 103.25 32.3972C103.675 33.2855 103.888 34.405 103.888 35.7559V44H101.14V36.0335C101.14 34.7381 100.862 33.7574 100.307 33.0912C99.7521 32.4065 98.9286 32.0641 97.8368 32.0641C97.0966 32.0641 96.4304 32.2399 95.8383 32.5915C95.2461 32.9431 94.7742 33.4613 94.4226 34.146C94.071 34.8122 93.8952 35.6264 93.8952 36.5887V44H91.1194ZM113.767 44.3331C112.434 44.3331 111.25 44.0278 110.214 43.4171C109.177 42.8064 108.363 41.9552 107.771 40.8634C107.197 39.7716 106.911 38.504 106.911 37.0605C106.911 35.5801 107.197 34.294 107.771 33.2022C108.363 32.0919 109.177 31.2314 110.214 30.6207C111.25 29.9916 112.453 29.677 113.822 29.677C115.192 29.677 116.367 29.9823 117.348 30.593C118.328 31.2036 119.087 32.0179 119.624 33.0357C120.16 34.0349 120.429 35.1453 120.429 36.3666C120.429 36.5517 120.419 36.7552 120.401 36.9773C120.401 37.1808 120.392 37.4121 120.373 37.6712H108.937V35.7004H117.653C117.597 34.5346 117.209 33.6278 116.487 32.9801C115.765 32.314 114.868 31.9809 113.795 31.9809C113.036 31.9809 112.342 32.1567 111.713 32.5083C111.084 32.8414 110.575 33.341 110.186 34.0072C109.816 34.6549 109.631 35.4784 109.631 36.4776V37.2549C109.631 38.2911 109.816 39.1701 110.186 39.8918C110.575 40.595 111.084 41.1317 111.713 41.5018C112.342 41.8534 113.027 42.0292 113.767 42.0292C114.655 42.0292 115.386 41.8349 115.96 41.4463C116.533 41.0577 116.959 40.5303 117.237 39.8641H120.012C119.772 40.7153 119.365 41.4833 118.791 42.168C118.217 42.8342 117.505 43.3616 116.654 43.7502C115.821 44.1388 114.859 44.3331 113.767 44.3331ZM123.513 44V30.0101H126.011L126.177 32.3972C126.621 31.5645 127.251 30.9076 128.065 30.4264C128.879 29.9268 129.814 29.677 130.868 29.677C131.979 29.677 132.932 29.899 133.727 30.3432C134.523 30.7873 135.143 31.4627 135.587 32.3695C136.031 33.2577 136.253 34.3773 136.253 35.7282V44H133.478V36.0057C133.478 34.7104 133.191 33.7296 132.617 33.0634C132.044 32.3972 131.211 32.0641 130.119 32.0641C129.397 32.0641 128.75 32.2399 128.176 32.5915C127.602 32.9246 127.14 33.4243 126.788 34.0905C126.455 34.7566 126.288 35.5709 126.288 36.5331V44H123.513ZM151.93 44V36.783L145.518 24.5695H148.655L153.679 34.7844H152.985L157.982 24.5695H161.09L154.706 36.783V44H151.93ZM167.413 44.3331C166.099 44.3331 164.915 44.0278 163.86 43.4171C162.824 42.8064 162.001 41.9552 161.39 40.8634C160.798 39.7531 160.502 38.4762 160.502 37.0328C160.502 35.5524 160.807 34.2663 161.418 33.1745C162.028 32.0641 162.861 31.2036 163.916 30.593C164.971 29.9823 166.155 29.677 167.469 29.677C168.801 29.677 169.986 29.9823 171.022 30.593C172.058 31.2036 172.872 32.0549 173.465 33.1467C174.075 34.2385 174.381 35.5246 174.381 37.005C174.381 38.4854 174.075 39.7716 173.465 40.8634C172.872 41.9552 172.049 42.8064 170.994 43.4171C169.939 44.0278 168.746 44.3331 167.413 44.3331ZM167.413 41.9459C168.172 41.9459 168.857 41.7609 169.467 41.3908C170.097 41.0207 170.596 40.4748 170.966 39.7531C171.355 39.0128 171.549 38.0968 171.549 37.005C171.549 35.9132 171.364 35.0065 170.994 34.2848C170.624 33.5446 170.124 32.9894 169.495 32.6193C168.884 32.2492 168.209 32.0641 167.469 32.0641C166.729 32.0641 166.044 32.2492 165.415 32.6193C164.786 32.9894 164.277 33.5446 163.888 34.2848C163.518 35.0065 163.333 35.9132 163.333 37.005C163.333 38.0968 163.518 39.0128 163.888 39.7531C164.277 40.4748 164.776 41.0207 165.387 41.3908C166.016 41.7609 166.692 41.9459 167.413 41.9459ZM182.781 44.3331C181.689 44.3331 180.736 44.111 179.922 43.6669C179.126 43.2228 178.506 42.5566 178.062 41.6683C177.637 40.7801 177.424 39.6605 177.424 38.3096V30.0101H180.199V38.0043C180.199 39.3182 180.486 40.3082 181.06 40.9744C181.634 41.6406 182.457 41.9737 183.53 41.9737C184.252 41.9737 184.9 41.7979 185.473 41.4463C186.066 41.0947 186.528 40.5858 186.861 39.9196C187.194 39.2534 187.361 38.4392 187.361 37.4769V30.0101H190.137V44H187.666L187.472 41.6128C187.046 42.4641 186.426 43.1303 185.612 43.6114C184.798 44.0925 183.854 44.3331 182.781 44.3331ZM209.589 44.3331C207.757 44.3331 206.156 43.9167 204.787 43.084C203.417 42.2513 202.353 41.0854 201.594 39.5865C200.836 38.0876 200.456 36.3388 200.456 34.3403C200.456 32.3602 200.836 30.6115 201.594 29.0941C202.372 27.5766 203.473 26.3923 204.898 25.5411C206.341 24.6713 208.044 24.2364 210.005 24.2364C212.207 24.2364 214.048 24.7731 215.529 25.8464C217.009 26.9012 217.962 28.3724 218.388 30.2599H215.224C214.946 29.1866 214.363 28.3446 213.475 27.7339C212.587 27.1047 211.421 26.7902 209.977 26.7902C208.608 26.7902 207.414 27.0955 206.397 27.7062C205.397 28.3168 204.629 29.1866 204.093 30.3154C203.556 31.4442 203.288 32.7858 203.288 34.3403C203.288 35.9132 203.556 37.2641 204.093 38.3929C204.629 39.5217 205.388 40.3822 206.369 40.9744C207.35 41.5666 208.478 41.8626 209.755 41.8626C211.717 41.8626 213.188 41.2982 214.169 40.1694C215.168 39.0406 215.751 37.5324 215.917 35.6449H210.56V33.5075H218.721V44H216.195L215.945 41.0299C215.501 41.7516 214.983 42.3623 214.391 42.8619C213.817 43.3431 213.142 43.7132 212.364 43.9722C211.587 44.2128 210.662 44.3331 209.589 44.3331ZM222.237 44V30.0101H224.735L224.985 32.6471C225.3 32.0179 225.707 31.4905 226.207 31.0649C226.706 30.6207 227.289 30.2784 227.955 30.0378C228.64 29.7973 229.417 29.677 230.287 29.677V32.6193H229.288C228.714 32.6193 228.168 32.6933 227.65 32.8414C227.132 32.9709 226.669 33.2022 226.262 33.5353C225.873 33.8684 225.568 34.3218 225.346 34.8954C225.124 35.4691 225.013 36.1815 225.013 37.0328V44H222.237ZM237.472 44.3331C236.324 44.3331 235.371 44.1388 234.613 43.7502C233.854 43.3616 233.289 42.8434 232.919 42.1957C232.549 41.5296 232.364 40.8171 232.364 40.0584C232.364 39.1331 232.605 38.3467 233.086 37.699C233.567 37.0328 234.252 36.5239 235.14 36.1723C236.028 35.8207 237.092 35.6449 238.332 35.6449H241.968C241.968 34.8307 241.848 34.1552 241.608 33.6186C241.367 33.0819 241.006 32.6841 240.525 32.425C240.062 32.1474 239.47 32.0086 238.749 32.0086C237.916 32.0086 237.203 32.2122 236.611 32.6193C236.019 33.0079 235.649 33.5908 235.501 34.368H232.725C232.836 33.3873 233.169 32.5545 233.724 31.8698C234.298 31.1666 235.029 30.63 235.917 30.2599C236.805 29.8713 237.749 29.677 238.749 29.677C240.062 29.677 241.163 29.9083 242.052 30.3709C242.94 30.8335 243.606 31.4905 244.05 32.3417C244.513 33.1745 244.744 34.1737 244.744 35.3396V44H242.329L242.107 41.6406C241.904 42.0107 241.663 42.3623 241.386 42.6954C241.108 43.0285 240.775 43.3153 240.386 43.5559C240.016 43.7964 239.581 43.9815 239.082 44.111C238.6 44.2591 238.064 44.3331 237.472 44.3331ZM237.999 42.0847C238.591 42.0847 239.128 41.9644 239.609 41.7239C240.09 41.4833 240.497 41.1595 240.83 40.7523C241.182 40.3267 241.441 39.8548 241.608 39.3367C241.793 38.8 241.894 38.2541 241.913 37.699V37.6157H238.61C237.814 37.6157 237.166 37.7175 236.667 37.921C236.186 38.1061 235.834 38.3652 235.612 38.6983C235.39 39.0314 235.279 39.42 235.279 39.8641C235.279 40.3267 235.381 40.7246 235.584 41.0577C235.806 41.3723 236.121 41.6221 236.528 41.8071C236.935 41.9922 237.425 42.0847 237.999 42.0847ZM255.921 44.3331C255.162 44.3331 254.468 44.2221 253.839 44C253.228 43.7964 252.691 43.5096 252.229 43.1395C251.766 42.7694 251.378 42.3438 251.063 41.8626L250.785 44H248.287V24.0144H251.063V32.2029C251.507 31.4997 252.127 30.9076 252.923 30.4264C253.737 29.9268 254.736 29.677 255.921 29.677C257.253 29.677 258.428 30.0008 259.446 30.6485C260.464 31.2777 261.25 32.1474 261.805 33.2577C262.379 34.3495 262.666 35.6079 262.666 37.0328C262.666 38.4207 262.379 39.6698 261.805 40.7801C261.25 41.8904 260.464 42.7602 259.446 43.3893C258.428 44.0185 257.253 44.3331 255.921 44.3331ZM255.477 41.9182C256.328 41.9182 257.077 41.7146 257.725 41.3075C258.391 40.9004 258.909 40.3267 259.279 39.5865C259.668 38.8463 259.862 37.9858 259.862 37.005C259.862 36.0243 259.668 35.173 259.279 34.4513C258.909 33.7111 258.391 33.1374 257.725 32.7303C257.077 32.3047 256.328 32.0919 255.477 32.0919C254.607 32.0919 253.839 32.3047 253.173 32.7303C252.525 33.1374 252.016 33.7111 251.646 34.4513C251.276 35.173 251.091 36.0243 251.091 37.005C251.091 37.9858 251.276 38.8463 251.646 39.5865C252.016 40.3267 252.525 40.9004 253.173 41.3075C253.839 41.7146 254.607 41.9182 255.477 41.9182ZM271.899 44L279.032 24.5695H282.058L289.192 44H286.222L280.531 27.9005L274.813 44H271.899ZM275.119 39.1979L275.896 36.9773H285.028L285.805 39.1979H275.119ZM296.348 44C295.46 44 294.692 43.8612 294.044 43.5836C293.397 43.3061 292.897 42.8434 292.545 42.1957C292.194 41.5481 292.018 40.6691 292.018 39.5587V32.3695H289.603V30.0101H292.018L292.351 26.5126H294.794V30.0101H298.763V32.3695H294.794V39.5865C294.794 40.3822 294.96 40.9281 295.293 41.2242C295.626 41.5018 296.2 41.6406 297.014 41.6406H298.624V44H296.348ZM307.598 44C306.709 44 305.941 43.8612 305.294 43.5836C304.646 43.3061 304.146 42.8434 303.795 42.1957C303.443 41.5481 303.267 40.6691 303.267 39.5587V32.3695H300.853V30.0101H303.267L303.601 26.5126H306.043V30.0101H310.013V32.3695H306.043V39.5865C306.043 40.3822 306.21 40.9281 306.543 41.2242C306.876 41.5018 307.45 41.6406 308.264 41.6406H309.874V44H307.598ZM319.023 44.3331C317.69 44.3331 316.506 44.0278 315.47 43.4171C314.434 42.8064 313.619 41.9552 313.027 40.8634C312.453 39.7716 312.167 38.504 312.167 37.0605C312.167 35.5801 312.453 34.294 313.027 33.2022C313.619 32.0919 314.434 31.2314 315.47 30.6207C316.506 29.9916 317.709 29.677 319.078 29.677C320.448 29.677 321.623 29.9823 322.604 30.593C323.584 31.2036 324.343 32.0179 324.88 33.0357C325.416 34.0349 325.685 35.1453 325.685 36.3666C325.685 36.5517 325.675 36.7552 325.657 36.9773C325.657 37.1808 325.648 37.4121 325.629 37.6712H314.193V35.7004H322.909C322.853 34.5346 322.465 33.6278 321.743 32.9801C321.021 32.314 320.124 31.9809 319.051 31.9809C318.292 31.9809 317.598 32.1567 316.969 32.5083C316.34 32.8414 315.831 33.341 315.442 34.0072C315.072 34.6549 314.887 35.4784 314.887 36.4776V37.2549C314.887 38.2911 315.072 39.1701 315.442 39.8918C315.831 40.595 316.34 41.1317 316.969 41.5018C317.598 41.8534 318.283 42.0292 319.023 42.0292C319.911 42.0292 320.642 41.8349 321.216 41.4463C321.789 41.0577 322.215 40.5303 322.493 39.8641H325.268C325.028 40.7153 324.621 41.4833 324.047 42.168C323.473 42.8342 322.761 43.3616 321.91 43.7502C321.077 44.1388 320.115 44.3331 319.023 44.3331ZM328.769 44V30.0101H331.267L331.433 32.3972C331.878 31.5645 332.507 30.9076 333.321 30.4264C334.135 29.9268 335.07 29.677 336.124 29.677C337.235 29.677 338.188 29.899 338.984 30.3432C339.779 30.7873 340.399 31.4627 340.843 32.3695C341.287 33.2577 341.509 34.3773 341.509 35.7282V44H338.734V36.0057C338.734 34.7104 338.447 33.7296 337.873 33.0634C337.3 32.3972 336.467 32.0641 335.375 32.0641C334.653 32.0641 334.006 32.2399 333.432 32.5915C332.858 32.9246 332.396 33.4243 332.044 34.0905C331.711 34.7566 331.544 35.5709 331.544 36.5331V44H328.769ZM350.834 44C349.945 44 349.177 43.8612 348.53 43.5836C347.882 43.3061 347.382 42.8434 347.031 42.1957C346.679 41.5481 346.503 40.6691 346.503 39.5587V32.3695H344.089V30.0101H346.503L346.837 26.5126H349.279V30.0101H353.249V32.3695H349.279V39.5865C349.279 40.3822 349.446 40.9281 349.779 41.2242C350.112 41.5018 350.686 41.6406 351.5 41.6406H353.11V44H350.834ZM356.504 44V30.0101H359.28V44H356.504ZM357.92 27.3731C357.383 27.3731 356.939 27.2065 356.587 26.8734C356.254 26.5403 356.088 26.1147 356.088 25.5966C356.088 25.0969 356.254 24.6898 356.587 24.3752C356.939 24.0421 357.383 23.8756 357.92 23.8756C358.438 23.8756 358.873 24.0421 359.224 24.3752C359.576 24.6898 359.752 25.0969 359.752 25.5966C359.752 26.1147 359.576 26.5403 359.224 26.8734C358.873 27.2065 358.438 27.3731 357.92 27.3731ZM369.633 44.3331C368.319 44.3331 367.135 44.0278 366.08 43.4171C365.044 42.8064 364.221 41.9552 363.61 40.8634C363.018 39.7531 362.722 38.4762 362.722 37.0328C362.722 35.5524 363.027 34.2663 363.638 33.1745C364.248 32.0641 365.081 31.2036 366.136 30.593C367.191 29.9823 368.375 29.677 369.689 29.677C371.021 29.677 372.206 29.9823 373.242 30.593C374.278 31.2036 375.092 32.0549 375.685 33.1467C376.295 34.2385 376.601 35.5246 376.601 37.005C376.601 38.4854 376.295 39.7716 375.685 40.8634C375.092 41.9552 374.269 42.8064 373.214 43.4171C372.159 44.0278 370.966 44.3331 369.633 44.3331ZM369.633 41.9459C370.392 41.9459 371.077 41.7609 371.687 41.3908C372.317 41.0207 372.816 40.4748 373.186 39.7531C373.575 39.0128 373.769 38.0968 373.769 37.005C373.769 35.9132 373.584 35.0065 373.214 34.2848C372.844 33.5446 372.344 32.9894 371.715 32.6193C371.105 32.2492 370.429 32.0641 369.689 32.0641C368.949 32.0641 368.264 32.2492 367.635 32.6193C367.006 32.9894 366.497 33.5446 366.108 34.2848C365.738 35.0065 365.553 35.9132 365.553 37.005C365.553 38.0968 365.738 39.0128 366.108 39.7531C366.497 40.4748 366.996 41.0207 367.607 41.3908C368.236 41.7609 368.912 41.9459 369.633 41.9459ZM379.866 44V30.0101H382.364L382.531 32.3972C382.975 31.5645 383.604 30.9076 384.418 30.4264C385.232 29.9268 386.167 29.677 387.222 29.677C388.332 29.677 389.285 29.899 390.081 30.3432C390.876 30.7873 391.496 31.4627 391.94 32.3695C392.385 33.2577 392.607 34.3773 392.607 35.7282V44H389.831V36.0057C389.831 34.7104 389.544 33.7296 388.97 33.0634C388.397 32.3972 387.564 32.0641 386.472 32.0641C385.75 32.0641 385.103 32.2399 384.529 32.5915C383.955 32.9246 383.493 33.4243 383.141 34.0905C382.808 34.7566 382.642 35.5709 382.642 36.5331V44H379.866ZM394.547 47.4142L396.129 41.0022H398.933L396.407 47.4142H394.547ZM413.895 44V36.783L407.483 24.5695H410.619L415.643 34.7844H414.949L419.946 24.5695H423.055L416.67 36.783V44H413.895ZM429.378 44.3331C428.064 44.3331 426.879 44.0278 425.825 43.4171C424.788 42.8064 423.965 41.9552 423.354 40.8634C422.762 39.7531 422.466 38.4762 422.466 37.0328C422.466 35.5524 422.771 34.2663 423.382 33.1745C423.993 32.0641 424.825 31.2036 425.88 30.593C426.935 29.9823 428.119 29.677 429.433 29.677C430.766 29.677 431.95 29.9823 432.986 30.593C434.023 31.2036 434.837 32.0549 435.429 33.1467C436.04 34.2385 436.345 35.5246 436.345 37.005C436.345 38.4854 436.04 39.7716 435.429 40.8634C434.837 41.9552 434.013 42.8064 432.958 43.4171C431.904 44.0278 430.71 44.3331 429.378 44.3331ZM429.378 41.9459C430.136 41.9459 430.821 41.7609 431.432 41.3908C432.061 41.0207 432.561 40.4748 432.931 39.7531C433.319 39.0128 433.514 38.0968 433.514 37.005C433.514 35.9132 433.329 35.0065 432.958 34.2848C432.588 33.5446 432.089 32.9894 431.46 32.6193C430.849 32.2492 430.173 32.0641 429.433 32.0641C428.693 32.0641 428.008 32.2492 427.379 32.6193C426.75 32.9894 426.241 33.5446 425.852 34.2848C425.482 35.0065 425.297 35.9132 425.297 37.005C425.297 38.0968 425.482 39.0128 425.852 39.7531C426.241 40.4748 426.741 41.0207 427.351 41.3908C427.981 41.7609 428.656 41.9459 429.378 41.9459ZM444.745 44.3331C443.654 44.3331 442.7 44.111 441.886 43.6669C441.091 43.2228 440.471 42.5566 440.026 41.6683C439.601 40.7801 439.388 39.6605 439.388 38.3096V30.0101H442.164V38.0043C442.164 39.3182 442.451 40.3082 443.024 40.9744C443.598 41.6406 444.421 41.9737 445.495 41.9737C446.216 41.9737 446.864 41.7979 447.438 41.4463C448.03 41.0947 448.493 40.5858 448.826 39.9196C449.159 39.2534 449.325 38.4392 449.325 37.4769V30.0101H452.101V44H449.631L449.436 41.6128C449.011 42.4641 448.391 43.1303 447.577 43.6114C446.762 44.0925 445.819 44.3331 444.745 44.3331ZM463.142 44V24.5695H466.418L472.996 37.699L479.547 24.5695H482.851V44H480.075V29.4271L474.051 41.2797H471.914L465.918 29.4549V44H463.142ZM491.385 44.3331C490.238 44.3331 489.285 44.1388 488.526 43.7502C487.767 43.3616 487.203 42.8434 486.833 42.1957C486.463 41.5296 486.278 40.8171 486.278 40.0584C486.278 39.1331 486.518 38.3467 486.999 37.699C487.481 37.0328 488.165 36.5239 489.054 36.1723C489.942 35.8207 491.006 35.6449 492.246 35.6449H495.882C495.882 34.8307 495.762 34.1552 495.521 33.6186C495.281 33.0819 494.92 32.6841 494.439 32.425C493.976 32.1474 493.384 32.0086 492.662 32.0086C491.829 32.0086 491.117 32.2122 490.525 32.6193C489.933 33.0079 489.562 33.5908 489.414 34.368H486.639C486.75 33.3873 487.083 32.5545 487.638 31.8698C488.212 31.1666 488.942 30.63 489.831 30.2599C490.719 29.8713 491.663 29.677 492.662 29.677C493.976 29.677 495.077 29.9083 495.965 30.3709C496.853 30.8335 497.52 31.4905 497.964 32.3417C498.426 33.1745 498.658 34.1737 498.658 35.3396V44H496.243L496.021 41.6406C495.817 42.0107 495.577 42.3623 495.299 42.6954C495.021 43.0285 494.688 43.3153 494.3 43.5559C493.93 43.7964 493.495 43.9815 492.995 44.111C492.514 44.2591 491.977 44.3331 491.385 44.3331ZM491.913 42.0847C492.505 42.0847 493.041 41.9644 493.523 41.7239C494.004 41.4833 494.411 41.1595 494.744 40.7523C495.095 40.3267 495.355 39.8548 495.521 39.3367C495.706 38.8 495.808 38.2541 495.826 37.699V37.6157H492.523C491.728 37.6157 491.08 37.7175 490.58 37.921C490.099 38.1061 489.747 38.3652 489.525 38.6983C489.303 39.0314 489.192 39.42 489.192 39.8641C489.192 40.3267 489.294 40.7246 489.498 41.0577C489.72 41.3723 490.034 41.6221 490.441 41.8071C490.849 41.9922 491.339 42.0847 491.913 42.0847ZM511 44L504.56 36.3388L510.389 30.0101H513.748L506.809 37.4214V35.3396L514.497 44H511ZM502.201 44V24.0144H504.977V44H502.201ZM522.11 44.3331C520.778 44.3331 519.594 44.0278 518.557 43.4171C517.521 42.8064 516.707 41.9552 516.115 40.8634C515.541 39.7716 515.254 38.504 515.254 37.0605C515.254 35.5801 515.541 34.294 516.115 33.2022C516.707 32.0919 517.521 31.2314 518.557 30.6207C519.594 29.9916 520.796 29.677 522.166 29.677C523.535 29.677 524.71 29.9823 525.691 30.593C526.672 31.2036 527.431 32.0179 527.967 33.0357C528.504 34.0349 528.772 35.1453 528.772 36.3666C528.772 36.5517 528.763 36.7552 528.744 36.9773C528.744 37.1808 528.735 37.4121 528.717 37.6712H517.28V35.7004H525.996C525.941 34.5346 525.552 33.6278 524.831 32.9801C524.109 32.314 523.211 31.9809 522.138 31.9809C521.379 31.9809 520.685 32.1567 520.056 32.5083C519.427 32.8414 518.918 33.341 518.53 34.0072C518.159 34.6549 517.974 35.4784 517.974 36.4776V37.2549C517.974 38.2911 518.159 39.1701 518.53 39.8918C518.918 40.595 519.427 41.1317 520.056 41.5018C520.685 41.8534 521.37 42.0292 522.11 42.0292C522.999 42.0292 523.729 41.8349 524.303 41.4463C524.877 41.0577 525.302 40.5303 525.58 39.8641H528.356C528.115 40.7153 527.708 41.4833 527.134 42.168C526.561 42.8342 525.848 43.3616 524.997 43.7502C524.164 44.1388 523.202 44.3331 522.11 44.3331ZM544.26 46.4149V22.0436H546.147V46.4149H544.26ZM545.454 44.3331C544.029 44.3331 542.78 44.0833 541.706 43.5836C540.633 43.0655 539.8 42.3438 539.208 41.4185C538.616 40.4933 538.32 39.4107 538.32 38.1709H541.234C541.253 38.8741 541.419 39.5217 541.734 40.1139C542.067 40.6876 542.539 41.1502 543.15 41.5018C543.779 41.8349 544.547 42.0014 545.454 42.0014C546.231 42.0014 546.897 41.8719 547.452 41.6128C548.026 41.3538 548.461 41.0022 548.757 40.558C549.053 40.0954 549.201 39.568 549.201 38.9758C549.201 38.2911 549.044 37.7267 548.729 37.2826C548.414 36.8385 547.989 36.4776 547.452 36.2001C546.934 35.904 546.323 35.6449 545.62 35.4228C544.935 35.2008 544.214 34.9602 543.455 34.7011C541.919 34.2015 540.772 33.5538 540.013 32.7581C539.273 31.9624 538.903 30.9261 538.903 29.6492C538.903 28.5574 539.162 27.6136 539.68 26.8179C540.198 26.0037 540.92 25.3745 541.845 24.9304C542.789 24.4678 543.899 24.2364 545.176 24.2364C546.434 24.2364 547.535 24.4678 548.479 24.9304C549.423 25.393 550.163 26.0314 550.7 26.8457C551.236 27.6599 551.505 28.6129 551.505 29.7047H548.562C548.562 29.2051 548.433 28.7147 548.174 28.2336C547.915 27.7524 547.526 27.3638 547.008 27.0677C546.49 26.7531 545.851 26.5958 545.093 26.5958C544.464 26.5773 543.899 26.6791 543.399 26.9012C542.9 27.1232 542.511 27.4471 542.234 27.8727C541.956 28.2983 541.817 28.8072 541.817 29.3994C541.817 29.9916 541.938 30.4727 542.178 30.8428C542.437 31.1944 542.807 31.4997 543.288 31.7588C543.77 32.0179 544.325 32.2584 544.954 32.4805C545.602 32.6841 546.314 32.9154 547.091 33.1745C548.054 33.489 548.905 33.8776 549.645 34.3403C550.404 34.7844 550.996 35.3673 551.421 36.089C551.866 36.7922 552.088 37.699 552.088 38.8093C552.088 39.7716 551.838 40.6691 551.338 41.5018C550.839 42.3345 550.098 43.0192 549.118 43.5559C548.137 44.074 546.915 44.3331 545.454 44.3331ZM560.551 46.4149V22.0436H562.439V46.4149H560.551ZM561.745 44.3331C560.32 44.3331 559.071 44.0833 557.998 43.5836C556.924 43.0655 556.092 42.3438 555.499 41.4185C554.907 40.4933 554.611 39.4107 554.611 38.1709H557.526C557.544 38.8741 557.711 39.5217 558.025 40.1139C558.358 40.6876 558.83 41.1502 559.441 41.5018C560.07 41.8349 560.838 42.0014 561.745 42.0014C562.522 42.0014 563.188 41.8719 563.743 41.6128C564.317 41.3538 564.752 41.0022 565.048 40.558C565.344 40.0954 565.492 39.568 565.492 38.9758C565.492 38.2911 565.335 37.7267 565.02 37.2826C564.706 36.8385 564.28 36.4776 563.743 36.2001C563.225 35.904 562.615 35.6449 561.911 35.4228C561.227 35.2008 560.505 34.9602 559.746 34.7011C558.21 34.2015 557.063 33.5538 556.304 32.7581C555.564 31.9624 555.194 30.9261 555.194 29.6492C555.194 28.5574 555.453 27.6136 555.971 26.8179C556.489 26.0037 557.211 25.3745 558.136 24.9304C559.08 24.4678 560.19 24.2364 561.467 24.2364C562.726 24.2364 563.827 24.4678 564.771 24.9304C565.714 25.393 566.454 26.0314 566.991 26.8457C567.528 27.6599 567.796 28.6129 567.796 29.7047H564.854C564.854 29.2051 564.724 28.7147 564.465 28.2336C564.206 27.7524 563.818 27.3638 563.299 27.0677C562.781 26.7531 562.143 26.5958 561.384 26.5958C560.755 26.5773 560.19 26.6791 559.691 26.9012C559.191 27.1232 558.803 27.4471 558.525 27.8727C558.247 28.2983 558.109 28.8072 558.109 29.3994C558.109 29.9916 558.229 30.4727 558.469 30.8428C558.729 31.1944 559.099 31.4997 559.58 31.7588C560.061 32.0179 560.616 32.2584 561.245 32.4805C561.893 32.6841 562.605 32.9154 563.383 33.1745C564.345 33.489 565.196 33.8776 565.936 34.3403C566.695 34.7844 567.287 35.3673 567.713 36.089C568.157 36.7922 568.379 37.699 568.379 38.8093C568.379 39.7716 568.129 40.6691 567.63 41.5018C567.13 42.3345 566.39 43.0192 565.409 43.5559C564.428 44.074 563.207 44.3331 561.745 44.3331ZM576.843 46.4149V22.0436H578.73V46.4149H576.843ZM578.036 44.3331C576.612 44.3331 575.362 44.0833 574.289 43.5836C573.216 43.0655 572.383 42.3438 571.791 41.4185C571.199 40.4933 570.903 39.4107 570.903 38.1709H573.817C573.836 38.8741 574.002 39.5217 574.317 40.1139C574.65 40.6876 575.122 41.1502 575.733 41.5018C576.362 41.8349 577.13 42.0014 578.036 42.0014C578.814 42.0014 579.48 41.8719 580.035 41.6128C580.609 41.3538 581.044 41.0022 581.34 40.558C581.636 40.0954 581.784 39.568 581.784 38.9758C581.784 38.2911 581.626 37.7267 581.312 37.2826C580.997 36.8385 580.572 36.4776 580.035 36.2001C579.517 35.904 578.906 35.6449 578.203 35.4228C577.518 35.2008 576.797 34.9602 576.038 34.7011C574.502 34.2015 573.355 33.5538 572.596 32.7581C571.856 31.9624 571.486 30.9261 571.486 29.6492C571.486 28.5574 571.745 27.6136 572.263 26.8179C572.781 26.0037 573.503 25.3745 574.428 24.9304C575.372 24.4678 576.482 24.2364 577.759 24.2364C579.017 24.2364 580.118 24.4678 581.062 24.9304C582.006 25.393 582.746 26.0314 583.283 26.8457C583.819 27.6599 584.088 28.6129 584.088 29.7047H581.145C581.145 29.2051 581.016 28.7147 580.757 28.2336C580.498 27.7524 580.109 27.3638 579.591 27.0677C579.073 26.7531 578.434 26.5958 577.676 26.5958C577.046 26.5773 576.482 26.6791 575.982 26.9012C575.483 27.1232 575.094 27.4471 574.817 27.8727C574.539 28.2983 574.4 28.8072 574.4 29.3994C574.4 29.9916 574.52 30.4727 574.761 30.8428C575.02 31.1944 575.39 31.4997 575.871 31.7588C576.352 32.0179 576.908 32.2584 577.537 32.4805C578.184 32.6841 578.897 32.9154 579.674 33.1745C580.636 33.489 581.488 33.8776 582.228 34.3403C582.987 34.7844 583.579 35.3673 584.004 36.089C584.448 36.7922 584.671 37.699 584.671 38.8093C584.671 39.7716 584.421 40.6691 583.921 41.5018C583.421 42.3345 582.681 43.0192 581.7 43.5559C580.72 44.074 579.498 44.3331 578.036 44.3331Z" fill="#36074E"/>
<path d="M2 66.875C53.9573 63.1104 178.793 57.2441 262.479 63.8964C367.087 72.2117 486.935 54.0917 586 63.8964" stroke="#FA7596" stroke-width="3" stroke-linecap="round"/>
<path d="M2 8C53.9573 4.23535 178.793 -1.63088 262.479 5.02138C367.087 13.3367 486.935 -4.78326 586 5.02138" stroke="#FA7596" stroke-width="3" stroke-linecap="round"/>
</svg>
