<svg width="1037" height="143" viewBox="0 0 1037 143" fill="none" xmlns="http://www.w3.org/2000/svg">
<path d="M1020.52 17.9564L17.1095 0.588143C8.57139 0.440356 2.29612 8.55148 4.5833 16.7788L36.9112 133.067C38.4476 138.594 43.4801 142.418 49.2163 142.418H992.982C998.726 142.418 1003.76 138.583 1005.29 133.046L1032.61 34.1263C1034.83 26.0807 1028.87 18.1008 1020.52 17.9564Z" fill="url(#paint0_linear_720_531)"/>
<path d="M48.6383 66.75V42.361H53.3418L64.5608 59.1894V42.361H69.2644V66.75H64.5608L53.3418 49.9565V66.75H48.6383ZM82.2085 67.1681C80.5361 67.1681 79.0263 66.7848 77.6791 66.0183C76.3551 65.2286 75.2983 64.1485 74.5085 62.7781C73.742 61.3844 73.3588 59.7933 73.3588 58.0048C73.3588 56.1698 73.742 54.5671 74.5085 53.1967C75.2983 51.803 76.3667 50.723 77.7139 49.9565C79.0611 49.1667 80.5709 48.7719 82.2433 48.7719C83.9389 48.7719 85.4487 49.1667 86.7727 49.9565C88.1199 50.723 89.1767 51.803 89.9433 53.1967C90.733 54.5671 91.1279 56.1582 91.1279 57.97C91.1279 59.7817 90.733 61.3844 89.9433 62.7781C89.1767 64.1485 88.1199 65.2286 86.7727 66.0183C85.4255 66.7848 83.9041 67.1681 82.2085 67.1681ZM82.2085 63.0917C82.9982 63.0917 83.695 62.9058 84.299 62.5342C84.9261 62.1626 85.4139 61.5935 85.7623 60.827C86.1339 60.0605 86.3198 59.1081 86.3198 57.97C86.3198 56.8318 86.1339 55.8911 85.7623 55.1478C85.4139 54.3813 84.9261 53.8122 84.299 53.4406C83.695 53.0457 83.0098 52.8483 82.2433 52.8483C81.5 52.8483 80.8148 53.0457 80.1877 53.4406C79.5605 53.8122 79.0611 54.3813 78.6895 55.1478C78.3411 55.8911 78.1669 56.8318 78.1669 57.97C78.1669 59.1081 78.3411 60.0605 78.6895 60.827C79.0611 61.5935 79.5489 62.1626 80.1528 62.5342C80.78 62.9058 81.4652 63.0917 82.2085 63.0917ZM103.486 66.75V42.361H109.096L116.552 57.5867L123.938 42.361H129.548V66.75H124.844V50.3746L118.398 63.3355H114.67L108.19 50.3746V66.75H103.486ZM140.165 67.1681C138.702 67.1681 137.494 66.9358 136.542 66.4713C135.589 65.9835 134.881 65.3447 134.416 64.555C133.975 63.742 133.754 62.8478 133.754 61.8722C133.754 60.8037 134.021 59.863 134.556 59.0501C135.113 58.2371 135.938 57.5983 137.029 57.1338C138.144 56.6692 139.538 56.437 141.21 56.437H145.566C145.566 55.5775 145.449 54.8691 145.217 54.3116C144.985 53.7309 144.625 53.3012 144.137 53.0225C143.649 52.7438 142.999 52.6044 142.186 52.6044C141.303 52.6044 140.548 52.8018 139.921 53.1967C139.317 53.5683 138.946 54.149 138.806 54.9388H134.242C134.358 53.6845 134.765 52.6044 135.462 51.6985C136.182 50.7694 137.122 50.0494 138.284 49.5384C139.468 49.0274 140.781 48.7719 142.221 48.7719C143.87 48.7719 145.298 49.0506 146.506 49.608C147.714 50.1655 148.643 50.9669 149.294 52.0121C149.944 53.0573 150.269 54.3465 150.269 55.8795V66.75H146.297L145.775 64.0672C145.519 64.5318 145.217 64.9499 144.869 65.3215C144.52 65.6931 144.114 66.0183 143.649 66.2971C143.185 66.5758 142.662 66.7848 142.081 66.9242C141.501 67.0868 140.862 67.1681 140.165 67.1681ZM141.28 63.5446C141.884 63.5446 142.418 63.4401 142.883 63.231C143.371 62.9987 143.789 62.6968 144.137 62.3251C144.486 61.9303 144.753 61.489 144.938 61.0012C145.148 60.4902 145.287 59.9443 145.357 59.3636V59.3288H141.768C141.048 59.3288 140.456 59.4217 139.991 59.6075C139.55 59.7701 139.224 60.014 139.015 60.3392C138.806 60.6644 138.702 61.036 138.702 61.4541C138.702 61.9187 138.806 62.3019 139.015 62.6039C139.224 62.9058 139.526 63.1381 139.921 63.3007C140.316 63.4633 140.769 63.5446 141.28 63.5446ZM162.362 66.75C161.131 66.75 160.051 66.5642 159.122 66.1925C158.216 65.7977 157.507 65.1589 156.996 64.2763C156.485 63.3704 156.23 62.1393 156.23 60.5831V53.127H153.233V49.1899H156.23L156.752 44.4167H160.933V49.1899H165.567V53.127H160.933V60.6528C160.933 61.4425 161.108 61.9883 161.456 62.2903C161.804 62.5923 162.397 62.7432 163.233 62.7432H165.532V66.75H162.362ZM177.435 66.75C176.204 66.75 175.124 66.5642 174.195 66.1925C173.289 65.7977 172.58 65.1589 172.069 64.2763C171.558 63.3704 171.303 62.1393 171.303 60.5831V53.127H168.306V49.1899H171.303L171.825 44.4167H176.006V49.1899H180.64V53.127H176.006V60.6528C176.006 61.4425 176.181 61.9883 176.529 62.2903C176.877 62.5923 177.47 62.7432 178.306 62.7432H180.605V66.75H177.435ZM192.588 67.1681C190.823 67.1681 189.255 66.7965 187.885 66.0532C186.537 65.2867 185.48 64.2298 184.714 62.8826C183.971 61.5122 183.599 59.9327 183.599 58.1442C183.599 56.3092 183.971 54.6949 184.714 53.3012C185.48 51.8843 186.537 50.781 187.885 49.9913C189.232 49.1783 190.8 48.7719 192.588 48.7719C194.33 48.7719 195.852 49.1551 197.152 49.9216C198.453 50.6881 199.463 51.7218 200.184 53.0225C200.904 54.3232 201.264 55.7982 201.264 57.4474C201.264 57.6796 201.264 57.9467 201.264 58.2487C201.264 58.5274 201.24 58.8178 201.194 59.1197H186.944V56.2627H196.525C196.456 55.1246 196.049 54.2303 195.306 53.58C194.586 52.9296 193.68 52.6044 192.588 52.6044C191.798 52.6044 191.067 52.7902 190.393 53.1619C189.72 53.5103 189.185 54.0561 188.79 54.7994C188.419 55.5427 188.233 56.4834 188.233 57.6216V58.632C188.233 59.5843 188.407 60.4205 188.756 61.1405C189.127 61.8374 189.638 62.3832 190.289 62.7781C190.939 63.1497 191.694 63.3355 192.553 63.3355C193.413 63.3355 194.121 63.1497 194.679 62.7781C195.259 62.4064 195.689 61.9303 195.968 61.3496H200.776C200.451 62.4413 199.905 63.4285 199.138 64.3111C198.372 65.1938 197.431 65.8906 196.316 66.4016C195.201 66.9126 193.959 67.1681 192.588 67.1681ZM205.116 66.75V49.1899H209.297L209.75 52.4302C210.168 51.6637 210.69 51.0133 211.318 50.4791C211.968 49.9448 212.7 49.5267 213.513 49.2248C214.349 48.9228 215.266 48.7719 216.265 48.7719V53.7542H214.662C213.965 53.7542 213.315 53.8355 212.711 53.9981C212.13 54.1606 211.619 54.4278 211.178 54.7994C210.737 55.1478 210.4 55.6356 210.168 56.2627C209.935 56.8899 209.819 57.6796 209.819 58.632V66.75H205.116ZM227.677 66.75V42.361H232.38V66.75H227.677ZM237.866 66.75V47.6221C237.866 46.1587 238.11 44.9974 238.598 44.1379C239.086 43.2785 239.783 42.6514 240.689 42.2565C241.618 41.8616 242.698 41.6642 243.929 41.6642H246.089V45.671H244.626C243.882 45.671 243.348 45.8219 243.023 46.1239C242.721 46.4026 242.57 46.902 242.57 47.6221V66.75H237.866ZM235.462 53.127V49.1899H246.368V53.127H235.462ZM264.605 66.75V58.179L256.383 42.361H261.713L267.462 54.4162H266.522L272.236 42.361H277.531L269.309 58.179V66.75H264.605ZM285.473 67.1681C283.8 67.1681 282.29 66.7848 280.943 66.0183C279.619 65.2286 278.562 64.1485 277.773 62.7781C277.006 61.3844 276.623 59.7933 276.623 58.0048C276.623 56.1698 277.006 54.5671 277.773 53.1967C278.562 51.803 279.631 50.723 280.978 49.9565C282.325 49.1667 283.835 48.7719 285.507 48.7719C287.203 48.7719 288.713 49.1667 290.037 49.9565C291.384 50.723 292.441 51.803 293.207 53.1967C293.997 54.5671 294.392 56.1582 294.392 57.97C294.392 59.7817 293.997 61.3844 293.207 62.7781C292.441 64.1485 291.384 65.2286 290.037 66.0183C288.69 66.7848 287.168 67.1681 285.473 67.1681ZM285.473 63.0917C286.262 63.0917 286.959 62.9058 287.563 62.5342C288.19 62.1626 288.678 61.5935 289.026 60.827C289.398 60.0605 289.584 59.1081 289.584 57.97C289.584 56.8318 289.398 55.8911 289.026 55.1478C288.678 54.3813 288.19 53.8122 287.563 53.4406C286.959 53.0457 286.274 52.8483 285.507 52.8483C284.764 52.8483 284.079 53.0457 283.452 53.4406C282.825 53.8122 282.325 54.3813 281.954 55.1478C281.605 55.8911 281.431 56.8318 281.431 57.97C281.431 59.1081 281.605 60.0605 281.954 60.827C282.325 61.5935 282.813 62.1626 283.417 62.5342C284.044 62.9058 284.729 63.0917 285.473 63.0917ZM304.996 67.1681C303.579 67.1681 302.36 66.8778 301.338 66.2971C300.339 65.6931 299.572 64.8221 299.038 63.684C298.504 62.5226 298.237 61.0941 298.237 59.3985V49.1899H302.94V58.9107C302.94 60.3276 303.231 61.396 303.811 62.1161C304.415 62.8362 305.333 63.1962 306.564 63.1962C307.354 63.1962 308.05 63.022 308.654 62.6736C309.258 62.3019 309.734 61.7793 310.083 61.1057C310.454 60.4089 310.64 59.5611 310.64 58.5623V49.1899H315.309V66.75H311.198L310.814 63.893C310.303 64.8918 309.549 65.6931 308.55 66.2971C307.551 66.8778 306.366 67.1681 304.996 67.1681ZM319.915 66.75V49.1899H324.096L324.549 52.4302C324.967 51.6637 325.49 51.0133 326.117 50.4791C326.767 49.9448 327.499 49.5267 328.312 49.2248C329.148 48.9228 330.066 48.7719 331.065 48.7719V53.7542H329.462C328.765 53.7542 328.115 53.8355 327.511 53.9981C326.93 54.1606 326.419 54.4278 325.978 54.7994C325.536 55.1478 325.2 55.6356 324.967 56.2627C324.735 56.8899 324.619 57.6796 324.619 58.632V66.75H319.915ZM342.476 66.75V42.361H351.605C353.579 42.361 355.217 42.6978 356.517 43.3714C357.818 44.045 358.782 44.9509 359.409 46.0891C360.036 47.2272 360.35 48.528 360.35 49.9913C360.35 51.3385 360.048 52.5812 359.444 53.7193C358.84 54.8575 357.888 55.7866 356.587 56.5066C355.286 57.2035 353.625 57.5519 351.605 57.5519H347.18V66.75H342.476ZM347.18 53.7542H351.326C352.836 53.7542 353.916 53.4174 354.566 52.7438C355.24 52.0469 355.577 51.1295 355.577 49.9913C355.577 48.7835 355.24 47.8544 354.566 47.204C353.916 46.5304 352.836 46.1936 351.326 46.1936H347.18V53.7542ZM363.773 66.75V49.1899H367.954L368.407 52.4302C368.825 51.6637 369.348 51.0133 369.975 50.4791C370.625 49.9448 371.357 49.5267 372.17 49.2248C373.006 48.9228 373.924 48.7719 374.923 48.7719V53.7542H373.32C372.623 53.7542 371.973 53.8355 371.369 53.9981C370.788 54.1606 370.277 54.4278 369.836 54.7994C369.394 55.1478 369.058 55.6356 368.825 56.2627C368.593 56.8899 368.477 57.6796 368.477 58.632V66.75H363.773ZM386.05 67.1681C384.377 67.1681 382.868 66.7848 381.52 66.0183C380.196 65.2286 379.14 64.1485 378.35 62.7781C377.583 61.3844 377.2 59.7933 377.2 58.0048C377.2 56.1698 377.583 54.5671 378.35 53.1967C379.14 51.803 380.208 50.723 381.555 49.9565C382.902 49.1667 384.412 48.7719 386.085 48.7719C387.78 48.7719 389.29 49.1667 390.614 49.9565C391.961 50.723 393.018 51.803 393.785 53.1967C394.574 54.5671 394.969 56.1582 394.969 57.97C394.969 59.7817 394.574 61.3844 393.785 62.7781C393.018 64.1485 391.961 65.2286 390.614 66.0183C389.267 66.7848 387.745 67.1681 386.05 67.1681ZM386.05 63.0917C386.839 63.0917 387.536 62.9058 388.14 62.5342C388.767 62.1626 389.255 61.5935 389.604 60.827C389.975 60.0605 390.161 59.1081 390.161 57.97C390.161 56.8318 389.975 55.8911 389.604 55.1478C389.255 54.3813 388.767 53.8122 388.14 53.4406C387.536 53.0457 386.851 52.8483 386.085 52.8483C385.341 52.8483 384.656 53.0457 384.029 53.4406C383.402 53.8122 382.902 54.3813 382.531 55.1478C382.182 55.8911 382.008 56.8318 382.008 57.97C382.008 59.1081 382.182 60.0605 382.531 60.827C382.902 61.5935 383.39 62.1626 383.994 62.5342C384.621 62.9058 385.306 63.0917 386.05 63.0917ZM406.827 67.1681C405.225 67.1681 403.785 66.7732 402.507 65.9835C401.253 65.1938 400.266 64.1021 399.546 62.7084C398.826 61.3147 398.466 59.7469 398.466 58.0048C398.466 56.2163 398.826 54.6368 399.546 53.2664C400.289 51.8727 401.299 50.781 402.577 49.9913C403.878 49.1783 405.329 48.7719 406.932 48.7719C408.186 48.7719 409.29 49.0041 410.242 49.4687C411.194 49.9332 411.961 50.5952 412.541 51.4546V41.6642H417.245V66.75H413.064L412.541 64.3459C412.193 64.8337 411.752 65.2983 411.217 65.7396C410.706 66.1809 410.091 66.5293 409.371 66.7848C408.651 67.0403 407.803 67.1681 406.827 67.1681ZM407.942 63.0568C408.871 63.0568 409.684 62.8478 410.381 62.4297C411.101 61.9883 411.659 61.3844 412.054 60.6179C412.449 59.8514 412.646 58.9688 412.646 57.97C412.646 56.9712 412.449 56.0885 412.054 55.322C411.659 54.5555 411.101 53.9632 410.381 53.5451C409.684 53.1038 408.871 52.8831 407.942 52.8831C407.06 52.8831 406.258 53.1038 405.538 53.5451C404.818 53.9632 404.249 54.5555 403.831 55.322C403.436 56.0885 403.239 56.9596 403.239 57.9351C403.239 58.9571 403.436 59.8514 403.831 60.6179C404.249 61.3844 404.807 61.9883 405.503 62.4297C406.224 62.8478 407.037 63.0568 407.942 63.0568ZM428.404 67.1681C426.987 67.1681 425.767 66.8778 424.745 66.2971C423.747 65.6931 422.98 64.8221 422.446 63.684C421.912 62.5226 421.645 61.0941 421.645 59.3985V49.1899H426.348V58.9107C426.348 60.3276 426.639 61.396 427.219 62.1161C427.823 62.8362 428.741 63.1962 429.972 63.1962C430.761 63.1962 431.458 63.022 432.062 62.6736C432.666 62.3019 433.142 61.7793 433.491 61.1057C433.862 60.4089 434.048 59.5611 434.048 58.5623V49.1899H438.717V66.75H434.606L434.222 63.893C433.711 64.8918 432.956 65.6931 431.958 66.2971C430.959 66.8778 429.774 67.1681 428.404 67.1681ZM451.825 67.1681C450.059 67.1681 448.491 66.7732 447.121 65.9835C445.751 65.1938 444.682 64.1137 443.916 62.7432C443.149 61.3728 442.766 59.805 442.766 58.0397C442.766 56.2279 443.149 54.6368 443.916 53.2664C444.682 51.8727 445.751 50.781 447.121 49.9913C448.491 49.1783 450.059 48.7719 451.825 48.7719C454.078 48.7719 455.971 49.3642 457.504 50.5488C459.037 51.7334 460.012 53.3593 460.43 55.4266H455.448C455.239 54.6136 454.798 53.9748 454.124 53.5103C453.474 53.0457 452.696 52.8135 451.79 52.8135C450.977 52.8135 450.245 53.0225 449.595 53.4406C448.968 53.8355 448.468 54.4278 448.097 55.2175C447.748 55.984 447.574 56.9015 447.574 57.97C447.574 58.7829 447.678 59.5146 447.887 60.165C448.097 60.7921 448.387 61.338 448.759 61.8025C449.13 62.2438 449.571 62.5806 450.082 62.8129C450.617 63.0452 451.186 63.1613 451.79 63.1613C452.394 63.1613 452.939 63.0568 453.427 62.8478C453.938 62.6387 454.368 62.3484 454.716 61.9767C455.065 61.5819 455.309 61.1057 455.448 60.5482H460.43C460.012 62.569 459.025 64.1834 457.469 65.3912C455.936 66.5758 454.054 67.1681 451.825 67.1681ZM472.192 66.75C470.96 66.75 469.88 66.5642 468.951 66.1925C468.045 65.7977 467.337 65.1589 466.826 64.2763C466.315 63.3704 466.059 62.1393 466.059 60.5831V53.127H463.063V49.1899H466.059L466.582 44.4167H470.763V49.1899H475.397V53.127H470.763V60.6528C470.763 61.4425 470.937 61.9883 471.286 62.2903C471.634 62.5923 472.226 62.7432 473.063 62.7432H475.362V66.75H472.192ZM487.66 66.75V42.361H492.364V66.75H487.66ZM504.226 67.1681C502.623 67.1681 501.229 66.9126 500.045 66.4016C498.86 65.8906 497.931 65.1821 497.257 64.2763C496.584 63.3704 496.201 62.3484 496.108 61.2102H500.776C500.893 61.6515 501.09 62.058 501.369 62.4297C501.647 62.7781 502.019 63.0568 502.484 63.2659C502.948 63.4749 503.506 63.5794 504.156 63.5794C504.783 63.5794 505.294 63.4981 505.689 63.3355C506.084 63.1497 506.374 62.9058 506.56 62.6039C506.769 62.3019 506.874 61.9883 506.874 61.6632C506.874 61.1754 506.734 60.8037 506.456 60.5482C506.177 60.2695 505.77 60.0488 505.236 59.8862C504.702 59.7237 504.052 59.5611 503.285 59.3985C502.449 59.2359 501.624 59.0384 500.811 58.8062C500.022 58.5507 499.313 58.2371 498.686 57.8654C498.059 57.4938 497.559 57.0176 497.188 56.437C496.816 55.8563 496.63 55.1362 496.63 54.2768C496.63 53.2315 496.909 52.3024 497.466 51.4895C498.024 50.6533 498.837 49.9913 499.905 49.5035C500.974 49.0157 502.263 48.7719 503.773 48.7719C505.886 48.7719 507.559 49.248 508.79 50.2003C510.021 51.1527 510.753 52.465 510.985 54.1374H506.56C506.421 53.6032 506.107 53.1851 505.619 52.8831C505.155 52.5579 504.528 52.3954 503.738 52.3954C502.902 52.3954 502.263 52.5463 501.822 52.8483C501.38 53.1503 501.16 53.5451 501.16 54.0329C501.16 54.3581 501.299 54.6484 501.578 54.9039C501.88 55.1594 502.298 55.3801 502.832 55.5659C503.366 55.7285 504.017 55.8911 504.783 56.0537C506.13 56.3324 507.315 56.6576 508.337 57.0293C509.359 57.3777 510.16 57.8887 510.741 58.5623C511.322 59.2126 511.612 60.165 511.612 61.4193C511.612 62.5342 511.31 63.533 510.706 64.4156C510.102 65.275 509.243 65.9486 508.128 66.4364C507.036 66.9242 505.736 67.1681 504.226 67.1681ZM528.809 66.75L522.398 42.361H527.415L531.666 61.4193L536.683 42.361H541.875L546.752 61.4193L551.038 42.361H556.09L549.505 66.75H543.895L539.227 48.9809L534.384 66.75H528.809ZM565.667 67.1681C563.994 67.1681 562.484 66.7848 561.137 66.0183C559.813 65.2286 558.756 64.1485 557.967 62.7781C557.2 61.3844 556.817 59.7933 556.817 58.0048C556.817 56.1698 557.2 54.5671 557.967 53.1967C558.756 51.803 559.825 50.723 561.172 49.9565C562.519 49.1667 564.029 48.7719 565.701 48.7719C567.397 48.7719 568.907 49.1667 570.231 49.9565C571.578 50.723 572.635 51.803 573.401 53.1967C574.191 54.5671 574.586 56.1582 574.586 57.97C574.586 59.7817 574.191 61.3844 573.401 62.7781C572.635 64.1485 571.578 65.2286 570.231 66.0183C568.884 66.7848 567.362 67.1681 565.667 67.1681ZM565.667 63.0917C566.456 63.0917 567.153 62.9058 567.757 62.5342C568.384 62.1626 568.872 61.5935 569.22 60.827C569.592 60.0605 569.778 59.1081 569.778 57.97C569.778 56.8318 569.592 55.8911 569.22 55.1478C568.872 54.3813 568.384 53.8122 567.757 53.4406C567.153 53.0457 566.468 52.8483 565.701 52.8483C564.958 52.8483 564.273 53.0457 563.646 53.4406C563.019 53.8122 562.519 54.3813 562.148 55.1478C561.799 55.8911 561.625 56.8318 561.625 57.97C561.625 59.1081 561.799 60.0605 562.148 60.827C562.519 61.5935 563.007 62.1626 563.611 62.5342C564.238 62.9058 564.923 63.0917 565.667 63.0917ZM578.64 66.75V49.1899H582.821L583.274 52.4302C583.692 51.6637 584.214 51.0133 584.842 50.4791C585.492 49.9448 586.224 49.5267 587.037 49.2248C587.873 48.9228 588.79 48.7719 589.789 48.7719V53.7542H588.186C587.49 53.7542 586.839 53.8355 586.235 53.9981C585.655 54.1606 585.144 54.4278 584.702 54.7994C584.261 55.1478 583.924 55.6356 583.692 56.2627C583.46 56.8899 583.343 57.6796 583.343 58.632V66.75H578.64ZM600.805 66.75C599.574 66.75 598.494 66.5642 597.565 66.1925C596.659 65.7977 595.951 65.1589 595.44 64.2763C594.929 63.3704 594.673 62.1393 594.673 60.5831V53.127H591.677V49.1899H594.673L595.196 44.4167H599.377V49.1899H604.011V53.127H599.377V60.6528C599.377 61.4425 599.551 61.9883 599.899 62.2903C600.248 62.5923 600.84 62.7432 601.676 62.7432H603.976V66.75H600.805ZM607.969 66.75V41.6642H612.673V51.8031C613.253 50.8739 614.02 50.1423 614.972 49.608C615.948 49.0506 617.074 48.7719 618.352 48.7719C619.815 48.7719 621.046 49.0854 622.045 49.7126C623.044 50.3165 623.799 51.1991 624.31 52.3605C624.821 53.5219 625.076 54.962 625.076 56.6808V66.75H620.408V57.0989C620.408 55.7053 620.117 54.6368 619.536 53.8935C618.956 53.127 618.038 52.7438 616.784 52.7438C616.018 52.7438 615.321 52.9296 614.694 53.3012C614.066 53.6729 613.567 54.2187 613.195 54.9388C612.847 55.6356 612.673 56.4718 612.673 57.4474V66.75H607.969ZM645.86 67.1681C644.28 67.1681 642.829 66.8778 641.505 66.2971C640.181 65.7164 639.124 64.8337 638.334 63.6491C637.544 62.4645 637.126 60.9663 637.08 59.1546H641.679C641.702 59.9211 641.876 60.6179 642.201 61.2451C642.527 61.849 643.003 62.3368 643.63 62.7084C644.257 63.0568 645 63.231 645.86 63.231C646.673 63.231 647.37 63.0684 647.95 62.7432C648.531 62.4181 648.972 61.9883 649.274 61.4541C649.576 60.9199 649.727 60.3043 649.727 59.6075C649.727 58.7946 649.518 58.121 649.1 57.5867C648.705 57.0293 648.148 56.6112 647.428 56.3324C646.731 56.0537 645.929 55.9143 645.024 55.9143H643.212V52.0469H645.024C646.162 52.0469 647.114 51.7798 647.881 51.2456C648.67 50.7114 649.065 49.91 649.065 48.8415C649.065 47.9589 648.775 47.2504 648.194 46.7162C647.637 46.182 646.847 45.9149 645.825 45.9149C644.71 45.9149 643.839 46.24 643.212 46.8904C642.585 47.5408 642.236 48.3421 642.167 49.2945H637.567C637.637 47.7615 638.02 46.4491 638.717 45.3574C639.437 44.2425 640.401 43.3947 641.609 42.814C642.817 42.2333 644.222 41.9429 645.825 41.9429C647.52 41.9429 648.949 42.2449 650.11 42.8488C651.295 43.4295 652.189 44.2192 652.793 45.218C653.397 46.2168 653.699 47.2969 653.699 48.4583C653.699 49.4106 653.513 50.2584 653.142 51.0017C652.793 51.745 652.317 52.3605 651.713 52.8483C651.109 53.3361 650.447 53.6845 649.727 53.8935C650.633 54.0794 651.423 54.4394 652.096 54.9736C652.793 55.4846 653.327 56.1466 653.699 56.9596C654.094 57.7725 654.291 58.7133 654.291 59.7817C654.291 61.1057 653.966 62.3368 653.316 63.4749C652.689 64.5898 651.736 65.4841 650.459 66.1577C649.204 66.8313 647.671 67.1681 645.86 67.1681ZM668.665 67.1681C666.458 67.1681 664.553 66.6339 662.951 65.5654C661.348 64.4969 660.117 63.022 659.258 61.1405C658.421 59.2359 658.003 57.0409 658.003 54.5555C658.003 52.0702 658.421 49.8868 659.258 48.0053C660.117 46.1007 661.336 44.6141 662.916 43.5456C664.519 42.4772 666.435 41.9429 668.665 41.9429C670.895 41.9429 672.799 42.4772 674.379 43.5456C675.981 44.6141 677.201 46.1007 678.037 48.0053C678.897 49.8868 679.326 52.0702 679.326 54.5555C679.326 57.0409 678.897 59.2359 678.037 61.1405C677.201 63.022 675.981 64.4969 674.379 65.5654C672.799 66.6339 670.895 67.1681 668.665 67.1681ZM668.665 62.9523C669.826 62.9523 670.848 62.6155 671.731 61.9419C672.613 61.2451 673.299 60.2695 673.786 59.0152C674.297 57.7609 674.553 56.2744 674.553 54.5555C674.553 52.8135 674.297 51.3269 673.786 50.0958C673.299 48.8415 672.613 47.8776 671.731 47.204C670.848 46.5304 669.826 46.1936 668.665 46.1936C667.503 46.1936 666.481 46.5304 665.599 47.204C664.716 47.8776 664.019 48.8415 663.508 50.0958C663.02 51.3269 662.777 52.8135 662.777 54.5555C662.777 56.2744 663.02 57.7609 663.508 59.0152C664.019 60.2695 664.716 61.2451 665.599 61.9419C666.481 62.6155 667.503 62.9523 668.665 62.9523ZM691.536 66.75V42.361H701.536C703.232 42.361 704.66 42.6282 705.821 43.1624C706.983 43.6966 707.854 44.4399 708.435 45.3922C709.038 46.3213 709.34 47.4014 709.34 48.6325C709.34 49.8635 709.073 50.8972 708.539 51.7334C708.005 52.5696 707.296 53.2199 706.414 53.6845C705.554 54.1258 704.602 54.3813 703.557 54.451L704.114 54.0677C705.229 54.1142 706.216 54.4162 707.076 54.9736C707.958 55.5078 708.644 56.2279 709.131 57.1338C709.642 58.0397 709.898 59.0268 709.898 60.0953C709.898 61.396 709.584 62.5458 708.957 63.5446C708.33 64.5434 707.424 65.3331 706.24 65.9138C705.055 66.4713 703.603 66.75 701.884 66.75H691.536ZM696.24 62.9174H701.118C702.395 62.9174 703.383 62.6271 704.079 62.0464C704.776 61.4657 705.125 60.6295 705.125 59.5378C705.125 58.4461 704.765 57.5983 704.045 56.9944C703.324 56.3673 702.326 56.0537 701.048 56.0537H696.24V62.9174ZM696.24 52.5347H700.769C702 52.5347 702.93 52.256 703.557 51.6985C704.207 51.1411 704.532 50.3513 704.532 49.3293C704.532 48.3305 704.207 47.5524 703.557 46.9949C702.93 46.4143 701.989 46.1239 700.735 46.1239H696.24V52.5347ZM720.2 67.1681C718.783 67.1681 717.564 66.8778 716.542 66.2971C715.543 65.6931 714.777 64.8221 714.242 63.684C713.708 62.5226 713.441 61.0941 713.441 59.3985V49.1899H718.145V58.9107C718.145 60.3276 718.435 61.396 719.016 62.1161C719.62 62.8362 720.537 63.1962 721.768 63.1962C722.558 63.1962 723.255 63.022 723.859 62.6736C724.463 62.3019 724.939 61.7793 725.287 61.1057C725.659 60.4089 725.845 59.5611 725.845 58.5623V49.1899H730.513V66.75H726.402L726.019 63.893C725.508 64.8918 724.753 65.6931 723.754 66.2971C722.755 66.8778 721.571 67.1681 720.2 67.1681ZM743.621 67.1681C741.856 67.1681 740.288 66.7732 738.917 65.9835C737.547 65.1938 736.479 64.1137 735.712 62.7432C734.946 61.3728 734.562 59.805 734.562 58.0397C734.562 56.2279 734.946 54.6368 735.712 53.2664C736.479 51.8727 737.547 50.781 738.917 49.9913C740.288 49.1783 741.856 48.7719 743.621 48.7719C745.874 48.7719 747.767 49.3642 749.3 50.5488C750.833 51.7334 751.809 53.3593 752.227 55.4266H747.245C747.035 54.6136 746.594 53.9748 745.921 53.5103C745.27 53.0457 744.492 52.8135 743.586 52.8135C742.773 52.8135 742.042 53.0225 741.391 53.4406C740.764 53.8355 740.265 54.4278 739.893 55.2175C739.545 55.984 739.37 56.9015 739.37 57.97C739.37 58.7829 739.475 59.5146 739.684 60.165C739.893 60.7921 740.183 61.338 740.555 61.8025C740.927 62.2438 741.368 62.5806 741.879 62.8129C742.413 63.0452 742.982 63.1613 743.586 63.1613C744.19 63.1613 744.736 63.0568 745.224 62.8478C745.735 62.6387 746.164 62.3484 746.513 61.9767C746.861 61.5819 747.105 61.1057 747.245 60.5482H752.227C751.809 62.569 750.822 64.1834 749.265 65.3912C747.732 66.5758 745.851 67.1681 743.621 67.1681ZM767.781 66.75L760.29 57.1338L767.014 49.1899H772.554L763.879 59.1197V55.3917L773.634 66.75H767.781ZM756.283 66.75V41.6642H760.987V66.75H756.283ZM782.753 67.1681C781.15 67.1681 779.756 66.9126 778.572 66.4016C777.387 65.8906 776.458 65.1821 775.784 64.2763C775.111 63.3704 774.727 62.3484 774.635 61.2102H779.303C779.419 61.6515 779.617 62.058 779.896 62.4297C780.174 62.7781 780.546 63.0568 781.01 63.2659C781.475 63.4749 782.033 63.5794 782.683 63.5794C783.31 63.5794 783.821 63.4981 784.216 63.3355C784.611 63.1497 784.901 62.9058 785.087 62.6039C785.296 62.3019 785.401 61.9883 785.401 61.6632C785.401 61.1754 785.261 60.8037 784.982 60.5482C784.704 60.2695 784.297 60.0488 783.763 59.8862C783.229 59.7237 782.578 59.5611 781.812 59.3985C780.976 59.2359 780.151 59.0384 779.338 58.8062C778.548 58.5507 777.84 58.2371 777.213 57.8654C776.586 57.4938 776.086 57.0176 775.715 56.437C775.343 55.8563 775.157 55.1362 775.157 54.2768C775.157 53.2315 775.436 52.3024 775.993 51.4895C776.551 50.6533 777.364 49.9913 778.432 49.5035C779.501 49.0157 780.79 48.7719 782.3 48.7719C784.413 48.7719 786.086 49.248 787.317 50.2003C788.548 51.1527 789.28 52.465 789.512 54.1374H785.087C784.948 53.6032 784.634 53.1851 784.146 52.8831C783.682 52.5579 783.055 52.3954 782.265 52.3954C781.429 52.3954 780.79 52.5463 780.349 52.8483C779.907 53.1503 779.687 53.5451 779.687 54.0329C779.687 54.3581 779.826 54.6484 780.105 54.9039C780.407 55.1594 780.825 55.3801 781.359 55.5659C781.893 55.7285 782.544 55.8911 783.31 56.0537C784.657 56.3324 785.842 56.6576 786.864 57.0293C787.886 57.3777 788.687 57.8887 789.268 58.5623C789.849 59.2126 790.139 60.165 790.139 61.4193C790.139 62.5342 789.837 63.533 789.233 64.4156C788.629 65.275 787.77 65.9486 786.655 66.4364C785.563 66.9242 784.262 67.1681 782.753 67.1681ZM813.677 67.1681C811.308 67.1681 809.217 66.6339 807.406 65.5654C805.594 64.4969 804.177 63.022 803.155 61.1405C802.133 59.2359 801.622 57.0409 801.622 54.5555C801.622 52.0702 802.133 49.8868 803.155 48.0053C804.177 46.1007 805.594 44.6141 807.406 43.5456C809.217 42.4772 811.308 41.9429 813.677 41.9429C816.069 41.9429 818.172 42.4772 819.983 43.5456C821.795 44.6141 823.2 46.1007 824.199 48.0053C825.221 49.8868 825.732 52.0702 825.732 54.5555C825.732 57.0409 825.221 59.2359 824.199 61.1405C823.2 63.022 821.795 64.4969 819.983 65.5654C818.172 66.6339 816.069 67.1681 813.677 67.1681ZM813.677 62.9523C815.164 62.9523 816.441 62.6155 817.51 61.9419C818.601 61.2451 819.449 60.2695 820.053 59.0152C820.657 57.7609 820.959 56.2744 820.959 54.5555C820.959 52.8135 820.657 51.3269 820.053 50.0958C819.449 48.8415 818.601 47.8776 817.51 47.204C816.441 46.5304 815.164 46.1936 813.677 46.1936C812.214 46.1936 810.936 46.5304 809.844 47.204C808.753 47.8776 807.905 48.8415 807.301 50.0958C806.697 51.3269 806.395 52.8135 806.395 54.5555C806.395 56.2744 806.697 57.7609 807.301 59.0152C807.905 60.2695 808.753 61.2451 809.844 61.9419C810.936 62.6155 812.214 62.9523 813.677 62.9523ZM829.641 66.75V49.1899H833.822L834.275 52.4302C834.693 51.6637 835.215 51.0133 835.842 50.4791C836.493 49.9448 837.224 49.5267 838.037 49.2248C838.874 48.9228 839.791 48.7719 840.79 48.7719V53.7542H839.187C838.49 53.7542 837.84 53.8355 837.236 53.9981C836.655 54.1606 836.144 54.4278 835.703 54.7994C835.262 55.1478 834.925 55.6356 834.693 56.2627C834.46 56.8899 834.344 57.6796 834.344 58.632V66.75H829.641ZM860.25 67.1681C858.67 67.1681 857.219 66.8778 855.895 66.2971C854.571 65.7164 853.514 64.8337 852.724 63.6491C851.934 62.4645 851.516 60.9663 851.47 59.1546H856.069C856.092 59.9211 856.266 60.6179 856.592 61.2451C856.917 61.849 857.393 62.3368 858.02 62.7084C858.647 63.0568 859.39 63.231 860.25 63.231C861.063 63.231 861.76 63.0684 862.34 62.7432C862.921 62.4181 863.362 61.9883 863.664 61.4541C863.966 60.9199 864.117 60.3043 864.117 59.6075C864.117 58.7946 863.908 58.121 863.49 57.5867C863.095 57.0293 862.538 56.6112 861.818 56.3324C861.121 56.0537 860.32 55.9143 859.414 55.9143H857.602V52.0469H859.414C860.552 52.0469 861.504 51.7798 862.271 51.2456C863.06 50.7114 863.455 49.91 863.455 48.8415C863.455 47.9589 863.165 47.2504 862.584 46.7162C862.027 46.182 861.237 45.9149 860.215 45.9149C859.1 45.9149 858.229 46.24 857.602 46.8904C856.975 47.5408 856.626 48.3421 856.557 49.2945H851.958C852.027 47.7615 852.411 46.4491 853.107 45.3574C853.827 44.2425 854.791 43.3947 855.999 42.814C857.207 42.2333 858.612 41.9429 860.215 41.9429C861.911 41.9429 863.339 42.2449 864.5 42.8488C865.685 43.4295 866.579 44.2192 867.183 45.218C867.787 46.2168 868.089 47.2969 868.089 48.4583C868.089 49.4106 867.903 50.2584 867.532 51.0017C867.183 51.745 866.707 52.3605 866.103 52.8483C865.499 53.3361 864.837 53.6845 864.117 53.8935C865.023 54.0794 865.813 54.4394 866.486 54.9736C867.183 55.4846 867.718 56.1466 868.089 56.9596C868.484 57.7725 868.681 58.7133 868.681 59.7817C868.681 61.1057 868.356 62.3368 867.706 63.4749C867.079 64.5898 866.126 65.4841 864.849 66.1577C863.595 66.8313 862.062 67.1681 860.25 67.1681ZM883.055 67.1681C880.848 67.1681 878.944 66.6339 877.341 65.5654C875.738 64.4969 874.507 63.022 873.648 61.1405C872.812 59.2359 872.393 57.0409 872.393 54.5555C872.393 52.0702 872.812 49.8868 873.648 48.0053C874.507 46.1007 875.727 44.6141 877.306 43.5456C878.909 42.4772 880.825 41.9429 883.055 41.9429C885.285 41.9429 887.189 42.4772 888.769 43.5456C890.372 44.6141 891.591 46.1007 892.427 48.0053C893.287 49.8868 893.716 52.0702 893.716 54.5555C893.716 57.0409 893.287 59.2359 892.427 61.1405C891.591 63.022 890.372 64.4969 888.769 65.5654C887.189 66.6339 885.285 67.1681 883.055 67.1681ZM883.055 62.9523C884.216 62.9523 885.238 62.6155 886.121 61.9419C887.004 61.2451 887.689 60.2695 888.177 59.0152C888.688 57.7609 888.943 56.2744 888.943 54.5555C888.943 52.8135 888.688 51.3269 888.177 50.0958C887.689 48.8415 887.004 47.8776 886.121 47.204C885.238 46.5304 884.216 46.1936 883.055 46.1936C881.894 46.1936 880.871 46.5304 879.989 47.204C879.106 47.8776 878.409 48.8415 877.898 50.0958C877.411 51.3269 877.167 52.8135 877.167 54.5555C877.167 56.2744 877.411 57.7609 877.898 59.0152C878.409 60.2695 879.106 61.2451 879.989 61.9419C880.871 62.6155 881.894 62.9523 883.055 62.9523ZM895.034 71.0355L897.02 62.1858H901.55L898.1 71.0355H895.034ZM915.106 67.1681C912.9 67.1681 910.995 66.6339 909.392 65.5654C907.79 64.4969 906.558 63.022 905.699 61.1405C904.863 59.2359 904.445 57.0409 904.445 54.5555C904.445 52.0702 904.863 49.8868 905.699 48.0053C906.558 46.1007 907.778 44.6141 909.357 43.5456C910.96 42.4772 912.876 41.9429 915.106 41.9429C917.336 41.9429 919.241 42.4772 920.82 43.5456C922.423 44.6141 923.642 46.1007 924.479 48.0053C925.338 49.8868 925.768 52.0702 925.768 54.5555C925.768 57.0409 925.338 59.2359 924.479 61.1405C923.642 63.022 922.423 64.4969 920.82 65.5654C919.241 66.6339 917.336 67.1681 915.106 67.1681ZM915.106 62.9523C916.268 62.9523 917.29 62.6155 918.172 61.9419C919.055 61.2451 919.74 60.2695 920.228 59.0152C920.739 57.7609 920.994 56.2744 920.994 54.5555C920.994 52.8135 920.739 51.3269 920.228 50.0958C919.74 48.8415 919.055 47.8776 918.172 47.204C917.29 46.5304 916.268 46.1936 915.106 46.1936C913.945 46.1936 912.923 46.5304 912.04 47.204C911.158 47.8776 910.461 48.8415 909.95 50.0958C909.462 51.3269 909.218 52.8135 909.218 54.5555C909.218 56.2744 909.462 57.7609 909.95 59.0152C910.461 60.2695 911.158 61.2451 912.04 61.9419C912.923 62.6155 913.945 62.9523 915.106 62.9523ZM939.638 67.1681C937.431 67.1681 935.527 66.6339 933.924 65.5654C932.321 64.4969 931.09 63.022 930.231 61.1405C929.395 59.2359 928.977 57.0409 928.977 54.5555C928.977 52.0702 929.395 49.8868 930.231 48.0053C931.09 46.1007 932.31 44.6141 933.889 43.5456C935.492 42.4772 937.408 41.9429 939.638 41.9429C941.868 41.9429 943.773 42.4772 945.352 43.5456C946.955 44.6141 948.174 46.1007 949.01 48.0053C949.87 49.8868 950.3 52.0702 950.3 54.5555C950.3 57.0409 949.87 59.2359 949.01 61.1405C948.174 63.022 946.955 64.4969 945.352 65.5654C943.773 66.6339 941.868 67.1681 939.638 67.1681ZM939.638 62.9523C940.799 62.9523 941.821 62.6155 942.704 61.9419C943.587 61.2451 944.272 60.2695 944.76 59.0152C945.271 57.7609 945.526 56.2744 945.526 54.5555C945.526 52.8135 945.271 51.3269 944.76 50.0958C944.272 48.8415 943.587 47.8776 942.704 47.204C941.821 46.5304 940.799 46.1936 939.638 46.1936C938.477 46.1936 937.455 46.5304 936.572 47.204C935.689 47.8776 934.993 48.8415 934.482 50.0958C933.994 51.3269 933.75 52.8135 933.75 54.5555C933.75 56.2744 933.994 57.7609 934.482 59.0152C934.993 60.2695 935.689 61.2451 936.572 61.9419C937.455 62.6155 938.477 62.9523 939.638 62.9523ZM964.17 67.1681C961.963 67.1681 960.059 66.6339 958.456 65.5654C956.853 64.4969 955.622 63.022 954.763 61.1405C953.927 59.2359 953.508 57.0409 953.508 54.5555C953.508 52.0702 953.927 49.8868 954.763 48.0053C955.622 46.1007 956.842 44.6141 958.421 43.5456C960.024 42.4772 961.94 41.9429 964.17 41.9429C966.4 41.9429 968.304 42.4772 969.884 43.5456C971.487 44.6141 972.706 46.1007 973.542 48.0053C974.402 49.8868 974.831 52.0702 974.831 54.5555C974.831 57.0409 974.402 59.2359 973.542 61.1405C972.706 63.022 971.487 64.4969 969.884 65.5654C968.304 66.6339 966.4 67.1681 964.17 67.1681ZM964.17 62.9523C965.331 62.9523 966.353 62.6155 967.236 61.9419C968.119 61.2451 968.804 60.2695 969.292 59.0152C969.803 57.7609 970.058 56.2744 970.058 54.5555C970.058 52.8135 969.803 51.3269 969.292 50.0958C968.804 48.8415 968.119 47.8776 967.236 47.204C966.353 46.5304 965.331 46.1936 964.17 46.1936C963.009 46.1936 961.987 46.5304 961.104 47.204C960.221 47.8776 959.524 48.8415 959.013 50.0958C958.526 51.3269 958.282 52.8135 958.282 54.5555C958.282 56.2744 958.526 57.7609 959.013 59.0152C959.524 60.2695 960.221 61.2451 961.104 61.9419C961.987 62.6155 963.009 62.9523 964.17 62.9523ZM77.2596 99.4578V95.5207H91.9627V99.4578H77.2596ZM642.362 108.168C639.993 108.168 637.903 107.634 636.091 106.565C634.279 105.497 632.862 104.022 631.84 102.141C630.818 100.236 630.307 98.0409 630.307 95.5555C630.307 93.0702 630.818 90.8868 631.84 89.0053C632.862 87.1007 634.279 85.6141 636.091 84.5456C637.903 83.4772 639.993 82.9429 642.362 82.9429C644.755 82.9429 646.857 83.4772 648.669 84.5456C650.48 85.6141 651.886 87.1007 652.884 89.0053C653.906 90.8868 654.417 93.0702 654.417 95.5555C654.417 98.0409 653.906 100.236 652.884 102.141C651.886 104.022 650.48 105.497 648.669 106.565C646.857 107.634 644.755 108.168 642.362 108.168ZM642.362 103.952C643.849 103.952 645.126 103.615 646.195 102.942C647.286 102.245 648.134 101.27 648.738 100.015C649.342 98.7609 649.644 97.2744 649.644 95.5555C649.644 93.8135 649.342 92.3269 648.738 91.0958C648.134 89.8415 647.286 88.8776 646.195 88.204C645.126 87.5304 643.849 87.1936 642.362 87.1936C640.899 87.1936 639.621 87.5304 638.53 88.204C637.438 88.8776 636.59 89.8415 635.986 91.0958C635.382 92.3269 635.08 93.8135 635.08 95.5555C635.08 97.2744 635.382 98.7609 635.986 100.015C636.59 101.27 637.438 102.245 638.53 102.942C639.621 103.615 640.899 103.952 642.362 103.952ZM659.127 107.75V88.6221C659.127 87.1587 659.371 85.9974 659.859 85.1379C660.347 84.2785 661.043 83.6514 661.949 83.2565C662.878 82.8616 663.959 82.6642 665.19 82.6642H667.35V86.671H665.886C665.143 86.671 664.609 86.8219 664.284 87.1239C663.982 87.4026 663.831 87.902 663.831 88.6221V107.75H659.127ZM656.723 94.127V90.1899H667.628V94.127H656.723ZM685.866 107.75V99.179L677.643 83.361H682.974L688.723 95.4162H687.782L693.496 83.361H698.792L690.57 99.179V107.75H685.866ZM706.733 108.168C705.061 108.168 703.551 107.785 702.204 107.018C700.88 106.229 699.823 105.149 699.033 103.778C698.267 102.384 697.884 100.793 697.884 99.0048C697.884 97.1698 698.267 95.5671 699.033 94.1967C699.823 92.803 700.892 91.723 702.239 90.9565C703.586 90.1667 705.096 89.7719 706.768 89.7719C708.464 89.7719 709.974 90.1667 711.297 90.9565C712.645 91.723 713.702 92.803 714.468 94.1967C715.258 95.5671 715.653 97.1582 715.653 98.97C715.653 100.782 715.258 102.384 714.468 103.778C713.702 105.149 712.645 106.229 711.297 107.018C709.95 107.785 708.429 108.168 706.733 108.168ZM706.733 104.092C707.523 104.092 708.22 103.906 708.824 103.534C709.451 103.163 709.939 102.593 710.287 101.827C710.659 101.06 710.845 100.108 710.845 98.97C710.845 97.8318 710.659 96.8911 710.287 96.1478C709.939 95.3813 709.451 94.8122 708.824 94.4406C708.22 94.0457 707.535 93.8483 706.768 93.8483C706.025 93.8483 705.34 94.0457 704.712 94.4406C704.085 94.8122 703.586 95.3813 703.214 96.1478C702.866 96.8911 702.692 97.8318 702.692 98.97C702.692 100.108 702.866 101.06 703.214 101.827C703.586 102.593 704.074 103.163 704.678 103.534C705.305 103.906 705.99 104.092 706.733 104.092ZM726.257 108.168C724.84 108.168 723.62 107.878 722.598 107.297C721.6 106.693 720.833 105.822 720.299 104.684C719.765 103.523 719.497 102.094 719.497 100.398V90.1899H724.201V99.9107C724.201 101.328 724.491 102.396 725.072 103.116C725.676 103.836 726.594 104.196 727.825 104.196C728.614 104.196 729.311 104.022 729.915 103.674C730.519 103.302 730.995 102.779 731.344 102.106C731.715 101.409 731.901 100.561 731.901 99.5623V90.1899H736.57V107.75H732.458L732.075 104.893C731.564 105.892 730.809 106.693 729.811 107.297C728.812 107.878 727.627 108.168 726.257 108.168ZM741.176 107.75V90.1899H745.357L745.81 93.4302C746.228 92.6637 746.751 92.0133 747.378 91.4791C748.028 90.9448 748.76 90.5267 749.573 90.2248C750.409 89.9228 751.327 89.7719 752.325 89.7719V94.7542H750.723C750.026 94.7542 749.376 94.8355 748.772 94.9981C748.191 95.1606 747.68 95.4278 747.239 95.7994C746.797 96.1478 746.46 96.6356 746.228 97.2627C745.996 97.8899 745.88 98.6796 745.88 99.632V107.75H741.176ZM762.1 107.75L771.019 83.361H776.35L785.234 107.75H780.252L773.667 88.7266L767.047 107.75H762.1ZM766.037 102.21L767.291 98.5519H779.694L780.914 102.21H766.037ZM794.578 108.168C793.162 108.168 791.942 107.878 790.92 107.297C789.921 106.693 789.155 105.822 788.621 104.684C788.086 103.523 787.819 102.094 787.819 100.398V90.1899H792.523V99.9107C792.523 101.328 792.813 102.396 793.394 103.116C793.998 103.836 794.915 104.196 796.146 104.196C796.936 104.196 797.633 104.022 798.237 103.674C798.841 103.302 799.317 102.779 799.665 102.106C800.037 101.409 800.223 100.561 800.223 99.5623V90.1899H804.892V107.75H800.78L800.397 104.893C799.886 105.892 799.131 106.693 798.132 107.297C797.134 107.878 795.949 108.168 794.578 108.168ZM817.302 108.168C815.7 108.168 814.26 107.773 812.982 106.983C811.728 106.194 810.741 105.102 810.021 103.708C809.3 102.315 808.94 100.747 808.94 99.0048C808.94 97.2163 809.3 95.6368 810.021 94.2664C810.764 92.8727 811.774 91.781 813.052 90.9913C814.352 90.1783 815.804 89.7719 817.407 89.7719C818.661 89.7719 819.765 90.0041 820.717 90.4687C821.669 90.9332 822.436 91.5952 823.016 92.4546V82.6642H827.72V107.75H823.539L823.016 105.346C822.668 105.834 822.227 106.298 821.692 106.74C821.181 107.181 820.566 107.529 819.846 107.785C819.126 108.04 818.278 108.168 817.302 108.168ZM818.417 104.057C819.346 104.057 820.159 103.848 820.856 103.43C821.576 102.988 822.134 102.384 822.529 101.618C822.923 100.851 823.121 99.9688 823.121 98.97C823.121 97.9712 822.923 97.0885 822.529 96.322C822.134 95.5555 821.576 94.9632 820.856 94.5451C820.159 94.1038 819.346 93.8831 818.417 93.8831C817.535 93.8831 816.733 94.1038 816.013 94.5451C815.293 94.9632 814.724 95.5555 814.306 96.322C813.911 97.0885 813.714 97.9596 813.714 98.9351C813.714 99.9571 813.911 100.851 814.306 101.618C814.724 102.384 815.282 102.988 815.978 103.43C816.698 103.848 817.511 104.057 818.417 104.057ZM832.433 107.75V90.1899H837.137V107.75H832.433ZM834.802 87.7859C833.966 87.7859 833.269 87.542 832.712 87.0542C832.178 86.5432 831.91 85.9045 831.91 85.1379C831.91 84.3714 832.178 83.7443 832.712 83.2565C833.269 82.7455 833.966 82.49 834.802 82.49C835.662 82.49 836.359 82.7455 836.893 83.2565C837.45 83.7443 837.729 84.3714 837.729 85.1379C837.729 85.9045 837.45 86.5432 836.893 87.0542C836.359 87.542 835.662 87.7859 834.802 87.7859ZM850.321 108.168C848.556 108.168 846.988 107.796 845.618 107.053C844.27 106.287 843.213 105.23 842.447 103.883C841.704 102.512 841.332 100.933 841.332 99.1442C841.332 97.3092 841.704 95.6949 842.447 94.3012C843.213 92.8843 844.27 91.781 845.618 90.9913C846.965 90.1783 848.533 89.7719 850.321 89.7719C852.063 89.7719 853.585 90.1551 854.885 90.9216C856.186 91.6881 857.196 92.7218 857.917 94.0225C858.637 95.3232 858.997 96.7982 858.997 98.4474C858.997 98.6796 858.997 98.9467 858.997 99.2487C858.997 99.5274 858.973 99.8178 858.927 100.12H844.677V97.2627H854.258C854.189 96.1246 853.782 95.2303 853.039 94.58C852.319 93.9296 851.413 93.6044 850.321 93.6044C849.531 93.6044 848.8 93.7902 848.126 94.1619C847.453 94.5103 846.918 95.0561 846.523 95.7994C846.152 96.5427 845.966 97.4834 845.966 98.6216V99.632C845.966 100.584 846.14 101.42 846.489 102.141C846.86 102.837 847.371 103.383 848.022 103.778C848.672 104.15 849.427 104.336 850.286 104.336C851.146 104.336 851.854 104.15 852.412 103.778C852.992 103.406 853.422 102.93 853.701 102.35H858.509C858.184 103.441 857.638 104.428 856.871 105.311C856.105 106.194 855.164 106.891 854.049 107.402C852.934 107.913 851.692 108.168 850.321 108.168ZM862.849 107.75V90.1899H866.995L867.343 93.0469C867.878 92.0714 868.632 91.2816 869.608 90.6777C870.607 90.0738 871.791 89.7719 873.162 89.7719C874.625 89.7719 875.856 90.0738 876.855 90.6777C877.854 91.2816 878.609 92.1643 879.12 93.3257C879.654 94.487 879.921 95.9155 879.921 97.6112V107.75H875.252V98.0641C875.252 96.6704 874.95 95.602 874.346 94.8587C873.766 94.1154 872.86 93.7438 871.629 93.7438C870.839 93.7438 870.131 93.9296 869.504 94.3012C868.9 94.6729 868.423 95.2071 868.075 95.9039C867.727 96.5775 867.552 97.4021 867.552 98.3777V107.75H862.849ZM892.854 108.168C891.088 108.168 889.521 107.773 888.15 106.983C886.78 106.194 885.711 105.114 884.945 103.743C884.178 102.373 883.795 100.805 883.795 99.0397C883.795 97.2279 884.178 95.6368 884.945 94.2664C885.711 92.8727 886.78 91.781 888.15 90.9913C889.521 90.1783 891.088 89.7719 892.854 89.7719C895.107 89.7719 897 90.3642 898.533 91.5488C900.066 92.7334 901.041 94.3593 901.46 96.4266H896.477C896.268 95.6136 895.827 94.9748 895.153 94.5103C894.503 94.0457 893.725 93.8135 892.819 93.8135C892.006 93.8135 891.274 94.0225 890.624 94.4406C889.997 94.8355 889.497 95.4278 889.126 96.2175C888.777 96.984 888.603 97.9015 888.603 98.97C888.603 99.7829 888.708 100.515 888.917 101.165C889.126 101.792 889.416 102.338 889.788 102.803C890.159 103.244 890.601 103.581 891.112 103.813C891.646 104.045 892.215 104.161 892.819 104.161C893.423 104.161 893.969 104.057 894.456 103.848C894.967 103.639 895.397 103.348 895.746 102.977C896.094 102.582 896.338 102.106 896.477 101.548H901.46C901.041 103.569 900.054 105.183 898.498 106.391C896.965 107.576 895.084 108.168 892.854 108.168ZM913.947 108.168C912.182 108.168 910.614 107.796 909.244 107.053C907.897 106.287 906.84 105.23 906.073 103.883C905.33 102.512 904.958 100.933 904.958 99.1442C904.958 97.3092 905.33 95.6949 906.073 94.3012C906.84 92.8843 907.897 91.781 909.244 90.9913C910.591 90.1783 912.159 89.7719 913.947 89.7719C915.69 89.7719 917.211 90.1551 918.512 90.9216C919.812 91.6881 920.823 92.7218 921.543 94.0225C922.263 95.3232 922.623 96.7982 922.623 98.4474C922.623 98.6796 922.623 98.9467 922.623 99.2487C922.623 99.5274 922.6 99.8178 922.553 100.12H908.303V97.2627H917.885C917.815 96.1246 917.408 95.2303 916.665 94.58C915.945 93.9296 915.039 93.6044 913.947 93.6044C913.158 93.6044 912.426 93.7902 911.752 94.1619C911.079 94.5103 910.545 95.0561 910.15 95.7994C909.778 96.5427 909.592 97.4834 909.592 98.6216V99.632C909.592 100.584 909.767 101.42 910.115 102.141C910.487 102.837 910.998 103.383 911.648 103.778C912.298 104.15 913.053 104.336 913.913 104.336C914.772 104.336 915.48 104.15 916.038 103.778C916.619 103.406 917.048 102.93 917.327 102.35H922.135C921.81 103.441 921.264 104.428 920.498 105.311C919.731 106.194 918.79 106.891 917.675 107.402C916.561 107.913 915.318 108.168 913.947 108.168ZM936.161 107.924C935.278 107.924 934.57 107.669 934.036 107.158C933.501 106.623 933.234 105.973 933.234 105.207C933.234 104.44 933.501 103.801 934.036 103.29C934.57 102.756 935.278 102.489 936.161 102.489C936.997 102.489 937.682 102.756 938.217 103.29C938.751 103.801 939.018 104.44 939.018 105.207C939.018 105.973 938.751 106.623 938.217 107.158C937.682 107.669 936.997 107.924 936.161 107.924ZM943.756 107.924C942.874 107.924 942.165 107.669 941.631 107.158C941.097 106.623 940.83 105.973 940.83 105.207C940.83 104.44 941.097 103.801 941.631 103.29C942.165 102.756 942.874 102.489 943.756 102.489C944.593 102.489 945.278 102.756 945.812 103.29C946.346 103.801 946.613 104.44 946.613 105.207C946.613 105.973 946.346 106.623 945.812 107.158C945.278 107.669 944.593 107.924 943.756 107.924ZM928.6 107.924C927.718 107.924 927.009 107.669 926.475 107.158C925.941 106.623 925.674 105.973 925.674 105.207C925.674 104.44 925.941 103.801 926.475 103.29C927.009 102.756 927.718 102.489 928.6 102.489C929.437 102.489 930.122 102.756 930.656 103.29C931.19 103.801 931.457 104.44 931.457 105.207C931.457 105.973 931.19 106.623 930.656 107.158C930.122 107.669 929.437 107.924 928.6 107.924Z" fill="#FBFBFB"/>
<path d="M114.698 108.168C112.909 108.168 111.283 107.808 109.82 107.088C108.356 106.368 107.195 105.288 106.336 103.848C105.476 102.408 105.046 100.573 105.046 98.3428V83.361H109.75V98.3777C109.75 99.5855 109.947 100.608 110.342 101.444C110.737 102.257 111.306 102.861 112.05 103.255C112.816 103.65 113.722 103.848 114.767 103.848C115.836 103.848 116.742 103.65 117.485 103.255C118.251 102.861 118.832 102.257 119.227 101.444C119.622 100.608 119.819 99.5855 119.819 98.3777V83.361H124.523V98.3428C124.523 100.573 124.081 102.408 123.199 103.848C122.316 105.288 121.12 106.368 119.61 107.088C118.124 107.808 116.486 108.168 114.698 108.168ZM129.002 107.75V90.1899H133.148L133.497 93.0469C134.031 92.0714 134.786 91.2816 135.762 90.6777C136.76 90.0738 137.945 89.7719 139.315 89.7719C140.779 89.7719 142.01 90.0738 143.009 90.6777C144.007 91.2816 144.762 92.1643 145.273 93.3257C145.808 94.487 146.075 95.9155 146.075 97.6112V107.75H141.406V98.0641C141.406 96.6704 141.104 95.602 140.5 94.8587C139.919 94.1154 139.013 93.7438 137.782 93.7438C136.993 93.7438 136.284 93.9296 135.657 94.3012C135.053 94.6729 134.577 95.2071 134.229 95.9039C133.88 96.5775 133.706 97.4021 133.706 98.3777V107.75H129.002ZM150.506 107.75V82.6642H155.21V107.75H150.506ZM168.226 108.168C166.461 108.168 164.893 107.796 163.523 107.053C162.176 106.287 161.119 105.23 160.352 103.883C159.609 102.512 159.237 100.933 159.237 99.1442C159.237 97.3092 159.609 95.6949 160.352 94.3012C161.119 92.8843 162.176 91.781 163.523 90.9913C164.87 90.1783 166.438 89.7719 168.226 89.7719C169.968 89.7719 171.49 90.1551 172.791 90.9216C174.091 91.6881 175.102 92.7218 175.822 94.0225C176.542 95.3232 176.902 96.7982 176.902 98.4474C176.902 98.6796 176.902 98.9467 176.902 99.2487C176.902 99.5274 176.879 99.8178 176.832 100.12H162.582V97.2627H172.163C172.094 96.1246 171.687 95.2303 170.944 94.58C170.224 93.9296 169.318 93.6044 168.226 93.6044C167.437 93.6044 166.705 93.7902 166.031 94.1619C165.358 94.5103 164.824 95.0561 164.429 95.7994C164.057 96.5427 163.871 97.4834 163.871 98.6216V99.632C163.871 100.584 164.045 101.42 164.394 102.141C164.765 102.837 165.276 103.383 165.927 103.778C166.577 104.15 167.332 104.336 168.192 104.336C169.051 104.336 169.759 104.15 170.317 103.778C170.898 103.406 171.327 102.93 171.606 102.35H176.414C176.089 103.441 175.543 104.428 174.777 105.311C174.01 106.194 173.069 106.891 171.954 107.402C170.839 107.913 169.597 108.168 168.226 108.168ZM187.931 108.168C186.329 108.168 184.935 107.913 183.75 107.402C182.566 106.891 181.637 106.182 180.963 105.276C180.289 104.37 179.906 103.348 179.813 102.21H184.482C184.598 102.652 184.796 103.058 185.074 103.43C185.353 103.778 185.725 104.057 186.189 104.266C186.654 104.475 187.211 104.579 187.862 104.579C188.489 104.579 189 104.498 189.395 104.336C189.79 104.15 190.08 103.906 190.266 103.604C190.475 103.302 190.579 102.988 190.579 102.663C190.579 102.175 190.44 101.804 190.161 101.548C189.882 101.27 189.476 101.049 188.942 100.886C188.408 100.724 187.757 100.561 186.991 100.398C186.154 100.236 185.33 100.038 184.517 99.8062C183.727 99.5507 183.019 99.2371 182.392 98.8654C181.764 98.4938 181.265 98.0176 180.893 97.437C180.522 96.8563 180.336 96.1362 180.336 95.2768C180.336 94.2315 180.615 93.3024 181.172 92.4895C181.73 91.6533 182.543 90.9913 183.611 90.5035C184.68 90.0157 185.969 89.7719 187.478 89.7719C189.592 89.7719 191.265 90.248 192.496 91.2003C193.727 92.1527 194.458 93.465 194.691 95.1374H190.266C190.126 94.6032 189.813 94.1851 189.325 93.8831C188.86 93.5579 188.233 93.3954 187.444 93.3954C186.607 93.3954 185.969 93.5463 185.527 93.8483C185.086 94.1503 184.865 94.5451 184.865 95.0329C184.865 95.3581 185.005 95.6484 185.283 95.9039C185.585 96.1594 186.003 96.3801 186.538 96.5659C187.072 96.7285 187.722 96.8911 188.489 97.0537C189.836 97.3324 191.021 97.6576 192.043 98.0293C193.065 98.3777 193.866 98.8887 194.447 99.5623C195.027 100.213 195.318 101.165 195.318 102.419C195.318 103.534 195.016 104.533 194.412 105.416C193.808 106.275 192.949 106.949 191.834 107.436C190.742 107.924 189.441 108.168 187.931 108.168ZM206.475 108.168C204.872 108.168 203.479 107.913 202.294 107.402C201.109 106.891 200.18 106.182 199.507 105.276C198.833 104.37 198.45 103.348 198.357 102.21H203.026C203.142 102.652 203.339 103.058 203.618 103.43C203.897 103.778 204.268 104.057 204.733 104.266C205.197 104.475 205.755 104.579 206.405 104.579C207.032 104.579 207.543 104.498 207.938 104.336C208.333 104.15 208.623 103.906 208.809 103.604C209.018 103.302 209.123 102.988 209.123 102.663C209.123 102.175 208.983 101.804 208.705 101.548C208.426 101.27 208.02 101.049 207.485 100.886C206.951 100.724 206.301 100.561 205.534 100.398C204.698 100.236 203.873 100.038 203.06 99.8062C202.271 99.5507 201.562 99.2371 200.935 98.8654C200.308 98.4938 199.809 98.0176 199.437 97.437C199.065 96.8563 198.879 96.1362 198.879 95.2768C198.879 94.2315 199.158 93.3024 199.716 92.4895C200.273 91.6533 201.086 90.9913 202.155 90.5035C203.223 90.0157 204.512 89.7719 206.022 89.7719C208.136 89.7719 209.808 90.248 211.039 91.2003C212.27 92.1527 213.002 93.465 213.234 95.1374H208.809C208.67 94.6032 208.356 94.1851 207.869 93.8831C207.404 93.5579 206.777 93.3954 205.987 93.3954C205.151 93.3954 204.512 93.5463 204.071 93.8483C203.629 94.1503 203.409 94.5451 203.409 95.0329C203.409 95.3581 203.548 95.6484 203.827 95.9039C204.129 96.1594 204.547 96.3801 205.081 96.5659C205.615 96.7285 206.266 96.8911 207.032 97.0537C208.38 97.3324 209.564 97.6576 210.586 98.0293C211.608 98.3777 212.41 98.8887 212.99 99.5623C213.571 100.213 213.861 101.165 213.861 102.419C213.861 103.534 213.559 104.533 212.955 105.416C212.351 106.275 211.492 106.949 210.377 107.436C209.285 107.924 207.985 108.168 206.475 108.168ZM232.452 107.75V99.179L224.229 83.361H229.56L235.309 95.4162H234.368L240.082 83.361H245.378L237.155 99.179V107.75H232.452ZM253.319 108.168C251.647 108.168 250.137 107.785 248.79 107.018C247.466 106.229 246.409 105.149 245.619 103.778C244.853 102.384 244.469 100.793 244.469 99.0048C244.469 97.1698 244.853 95.5671 245.619 94.1967C246.409 92.803 247.477 91.723 248.825 90.9565C250.172 90.1667 251.682 89.7719 253.354 89.7719C255.05 89.7719 256.559 90.1667 257.883 90.9565C259.231 91.723 260.287 92.803 261.054 94.1967C261.844 95.5671 262.238 97.1582 262.238 98.97C262.238 100.782 261.844 102.384 261.054 103.778C260.287 105.149 259.231 106.229 257.883 107.018C256.536 107.785 255.015 108.168 253.319 108.168ZM253.319 104.092C254.109 104.092 254.806 103.906 255.41 103.534C256.037 103.163 256.524 102.593 256.873 101.827C257.245 101.06 257.43 100.108 257.43 98.97C257.43 97.8318 257.245 96.8911 256.873 96.1478C256.524 95.3813 256.037 94.8122 255.41 94.4406C254.806 94.0457 254.12 93.8483 253.354 93.8483C252.611 93.8483 251.925 94.0457 251.298 94.4406C250.671 94.8122 250.172 95.3813 249.8 96.1478C249.452 96.8911 249.277 97.8318 249.277 98.97C249.277 100.108 249.452 101.06 249.8 101.827C250.172 102.593 250.66 103.163 251.263 103.534C251.891 103.906 252.576 104.092 253.319 104.092ZM272.843 108.168C271.426 108.168 270.206 107.878 269.184 107.297C268.185 106.693 267.419 105.822 266.885 104.684C266.35 103.523 266.083 102.094 266.083 100.398V90.1899H270.787V99.9107C270.787 101.328 271.077 102.396 271.658 103.116C272.262 103.836 273.179 104.196 274.41 104.196C275.2 104.196 275.897 104.022 276.501 103.674C277.105 103.302 277.581 102.779 277.929 102.106C278.301 101.409 278.487 100.561 278.487 99.5623V90.1899H283.156V107.75H279.044L278.661 104.893C278.15 105.892 277.395 106.693 276.396 107.297C275.398 107.878 274.213 108.168 272.843 108.168ZM311.432 107.75V83.361H316.135V107.75H311.432ZM296.066 107.75V83.361H300.77V107.75H296.066ZM300.108 97.1931V93.3954H312.233V97.1931H300.108ZM326.757 108.168C325.294 108.168 324.086 107.936 323.134 107.471C322.181 106.983 321.473 106.345 321.008 105.555C320.567 104.742 320.346 103.848 320.346 102.872C320.346 101.804 320.613 100.863 321.148 100.05C321.705 99.2371 322.53 98.5983 323.621 98.1338C324.736 97.6692 326.13 97.437 327.802 97.437H332.158C332.158 96.5775 332.041 95.8691 331.809 95.3116C331.577 94.7309 331.217 94.3012 330.729 94.0225C330.241 93.7438 329.591 93.6044 328.778 93.6044C327.895 93.6044 327.14 93.8018 326.513 94.1967C325.909 94.5683 325.538 95.149 325.398 95.9388H320.834C320.95 94.6845 321.357 93.6044 322.054 92.6985C322.774 91.7694 323.714 91.0494 324.876 90.5384C326.06 90.0274 327.373 89.7719 328.813 89.7719C330.462 89.7719 331.89 90.0506 333.098 90.608C334.306 91.1655 335.235 91.9669 335.886 93.0121C336.536 94.0573 336.861 95.3465 336.861 96.8795V107.75H332.889L332.367 105.067C332.111 105.532 331.809 105.95 331.461 106.322C331.112 106.693 330.706 107.018 330.241 107.297C329.777 107.576 329.254 107.785 328.673 107.924C328.093 108.087 327.454 108.168 326.757 108.168ZM327.872 104.545C328.476 104.545 329.01 104.44 329.475 104.231C329.963 103.999 330.381 103.697 330.729 103.325C331.077 102.93 331.345 102.489 331.53 102.001C331.739 101.49 331.879 100.944 331.948 100.364V100.329H328.36C327.64 100.329 327.047 100.422 326.583 100.608C326.142 100.77 325.816 101.014 325.607 101.339C325.398 101.664 325.294 102.036 325.294 102.454C325.294 102.919 325.398 103.302 325.607 103.604C325.816 103.906 326.118 104.138 326.513 104.301C326.908 104.463 327.361 104.545 327.872 104.545ZM345.442 107.75L338.996 90.1899H343.944L348.299 103.325L352.654 90.1899H357.567L351.156 107.75H345.442ZM368.054 108.168C366.289 108.168 364.721 107.796 363.35 107.053C362.003 106.287 360.946 105.23 360.18 103.883C359.436 102.512 359.065 100.933 359.065 99.1442C359.065 97.3092 359.436 95.6949 360.18 94.3012C360.946 92.8843 362.003 91.781 363.35 90.9913C364.698 90.1783 366.265 89.7719 368.054 89.7719C369.796 89.7719 371.317 90.1551 372.618 90.9216C373.919 91.6881 374.929 92.7218 375.649 94.0225C376.369 95.3232 376.729 96.7982 376.729 98.4474C376.729 98.6796 376.729 98.9467 376.729 99.2487C376.729 99.5274 376.706 99.8178 376.66 100.12H362.41V97.2627H371.991C371.921 96.1246 371.515 95.2303 370.772 94.58C370.051 93.9296 369.146 93.6044 368.054 93.6044C367.264 93.6044 366.533 93.7902 365.859 94.1619C365.185 94.5103 364.651 95.0561 364.256 95.7994C363.885 96.5427 363.699 97.4834 363.699 98.6216V99.632C363.699 100.584 363.873 101.42 364.221 102.141C364.593 102.837 365.104 103.383 365.754 103.778C366.405 104.15 367.16 104.336 368.019 104.336C368.878 104.336 369.587 104.15 370.144 103.778C370.725 103.406 371.155 102.93 371.434 102.35H376.242C375.916 103.441 375.371 104.428 374.604 105.311C373.838 106.194 372.897 106.891 371.782 107.402C370.667 107.913 369.424 108.168 368.054 108.168ZM394.565 107.75V87.1587H387.423V83.361H406.342V87.1587H399.234V107.75H394.565ZM409.571 107.75V82.6642H414.274V92.8031C414.855 91.8739 415.621 91.1423 416.574 90.608C417.549 90.0506 418.676 89.7719 419.953 89.7719C421.417 89.7719 422.648 90.0854 423.647 90.7126C424.645 91.3165 425.4 92.1991 425.911 93.3605C426.422 94.5219 426.678 95.962 426.678 97.6808V107.75H422.009V98.0989C422.009 96.7053 421.719 95.6368 421.138 94.8935C420.557 94.127 419.64 93.7438 418.386 93.7438C417.619 93.7438 416.922 93.9296 416.295 94.3012C415.668 94.6729 415.169 95.2187 414.797 95.9388C414.448 96.6356 414.274 97.4718 414.274 98.4474V107.75H409.571ZM439.54 108.168C437.775 108.168 436.207 107.796 434.836 107.053C433.489 106.287 432.432 105.23 431.666 103.883C430.923 102.512 430.551 100.933 430.551 99.1442C430.551 97.3092 430.923 95.6949 431.666 94.3012C432.432 92.8843 433.489 91.781 434.836 90.9913C436.184 90.1783 437.751 89.7719 439.54 89.7719C441.282 89.7719 442.803 90.1551 444.104 90.9216C445.405 91.6881 446.415 92.7218 447.135 94.0225C447.855 95.3232 448.215 96.7982 448.215 98.4474C448.215 98.6796 448.215 98.9467 448.215 99.2487C448.215 99.5274 448.192 99.8178 448.146 100.12H433.896V97.2627H443.477C443.407 96.1246 443.001 95.2303 442.258 94.58C441.538 93.9296 440.632 93.6044 439.54 93.6044C438.75 93.6044 438.019 93.7902 437.345 94.1619C436.671 94.5103 436.137 95.0561 435.742 95.7994C435.371 96.5427 435.185 97.4834 435.185 98.6216V99.632C435.185 100.584 435.359 101.42 435.707 102.141C436.079 102.837 436.59 103.383 437.24 103.778C437.891 104.15 438.646 104.336 439.505 104.336C440.365 104.336 441.073 104.15 441.63 103.778C442.211 103.406 442.641 102.93 442.92 102.35H447.728C447.403 103.441 446.857 104.428 446.09 105.311C445.324 106.194 444.383 106.891 443.268 107.402C442.153 107.913 440.91 108.168 439.54 108.168ZM458.735 107.75L467.654 83.361H472.985L481.869 107.75H476.887L470.302 88.7266L463.682 107.75H458.735ZM462.672 102.21L463.926 98.5519H476.329L477.549 102.21H462.672ZM491.143 107.75C489.912 107.75 488.832 107.564 487.903 107.193C486.997 106.798 486.289 106.159 485.778 105.276C485.267 104.37 485.011 103.139 485.011 101.583V94.127H482.015V90.1899H485.011L485.534 85.4167H489.715V90.1899H494.349V94.127H489.715V101.653C489.715 102.442 489.889 102.988 490.237 103.29C490.586 103.592 491.178 103.743 492.014 103.743H494.314V107.75H491.143ZM506.216 107.75C504.985 107.75 503.905 107.564 502.976 107.193C502.07 106.798 501.362 106.159 500.851 105.276C500.34 104.37 500.084 103.139 500.084 101.583V94.127H497.088V90.1899H500.084L500.607 85.4167H504.788V90.1899H509.422V94.127H504.788V101.653C504.788 102.442 504.962 102.988 505.31 103.29C505.659 103.592 506.251 103.743 507.087 103.743H509.387V107.75H506.216ZM521.37 108.168C519.604 108.168 518.036 107.796 516.666 107.053C515.319 106.287 514.262 105.23 513.495 103.883C512.752 102.512 512.381 100.933 512.381 99.1442C512.381 97.3092 512.752 95.6949 513.495 94.3012C514.262 92.8843 515.319 91.781 516.666 90.9913C518.013 90.1783 519.581 89.7719 521.37 89.7719C523.112 89.7719 524.633 90.1551 525.934 90.9216C527.235 91.6881 528.245 92.7218 528.965 94.0225C529.685 95.3232 530.045 96.7982 530.045 98.4474C530.045 98.6796 530.045 98.9467 530.045 99.2487C530.045 99.5274 530.022 99.8178 529.975 100.12H515.725V97.2627H525.307C525.237 96.1246 524.83 95.2303 524.087 94.58C523.367 93.9296 522.461 93.6044 521.37 93.6044C520.58 93.6044 519.848 93.7902 519.175 94.1619C518.501 94.5103 517.967 95.0561 517.572 95.7994C517.2 96.5427 517.014 97.4834 517.014 98.6216V99.632C517.014 100.584 517.189 101.42 517.537 102.141C517.909 102.837 518.42 103.383 519.07 103.778C519.72 104.15 520.475 104.336 521.335 104.336C522.194 104.336 522.903 104.15 523.46 103.778C524.041 103.406 524.47 102.93 524.749 102.35H529.557C529.232 103.441 528.686 104.428 527.92 105.311C527.153 106.194 526.213 106.891 525.098 107.402C523.983 107.913 522.74 108.168 521.37 108.168ZM533.897 107.75V90.1899H538.043L538.392 93.0469C538.926 92.0714 539.681 91.2816 540.656 90.6777C541.655 90.0738 542.84 89.7719 544.21 89.7719C545.674 89.7719 546.905 90.0738 547.903 90.6777C548.902 91.2816 549.657 92.1643 550.168 93.3257C550.702 94.487 550.97 95.9155 550.97 97.6112V107.75H546.301V98.0641C546.301 96.6704 545.999 95.602 545.395 94.8587C544.814 94.1154 543.908 93.7438 542.677 93.7438C541.888 93.7438 541.179 93.9296 540.552 94.3012C539.948 94.6729 539.472 95.2071 539.123 95.9039C538.775 96.5775 538.601 97.4021 538.601 98.3777V107.75H533.897ZM563.31 107.75C562.079 107.75 560.999 107.564 560.07 107.193C559.164 106.798 558.455 106.159 557.944 105.276C557.433 104.37 557.178 103.139 557.178 101.583V94.127H554.181V90.1899H557.178L557.7 85.4167H561.881V90.1899H566.515V94.127H561.881V101.653C561.881 102.442 562.056 102.988 562.404 103.29C562.752 103.592 563.345 103.743 564.181 103.743H566.48V107.75H563.31ZM570.578 107.75V90.1899H575.282V107.75H570.578ZM572.948 87.7859C572.111 87.7859 571.415 87.542 570.857 87.0542C570.323 86.5432 570.056 85.9045 570.056 85.1379C570.056 84.3714 570.323 83.7443 570.857 83.2565C571.415 82.7455 572.111 82.49 572.948 82.49C573.807 82.49 574.504 82.7455 575.038 83.2565C575.596 83.7443 575.874 84.3714 575.874 85.1379C575.874 85.9045 575.596 86.5432 575.038 87.0542C574.504 87.542 573.807 87.7859 572.948 87.7859ZM588.327 108.168C586.655 108.168 585.145 107.785 583.798 107.018C582.474 106.229 581.417 105.149 580.627 103.778C579.861 102.384 579.477 100.793 579.477 99.0048C579.477 97.1698 579.861 95.5671 580.627 94.1967C581.417 92.803 582.485 91.723 583.833 90.9565C585.18 90.1667 586.69 89.7719 588.362 89.7719C590.058 89.7719 591.567 90.1667 592.891 90.9565C594.239 91.723 595.295 92.803 596.062 94.1967C596.852 95.5671 597.246 97.1582 597.246 98.97C597.246 100.782 596.852 102.384 596.062 103.778C595.295 105.149 594.239 106.229 592.891 107.018C591.544 107.785 590.023 108.168 588.327 108.168ZM588.327 104.092C589.117 104.092 589.814 103.906 590.418 103.534C591.045 103.163 591.532 102.593 591.881 101.827C592.253 101.06 592.438 100.108 592.438 98.97C592.438 97.8318 592.253 96.8911 591.881 96.1478C591.532 95.3813 591.045 94.8122 590.418 94.4406C589.814 94.0457 589.128 93.8483 588.362 93.8483C587.619 93.8483 586.933 94.0457 586.306 94.4406C585.679 94.8122 585.18 95.3813 584.808 96.1478C584.46 96.8911 584.285 97.8318 584.285 98.97C584.285 100.108 584.46 101.06 584.808 101.827C585.18 102.593 585.668 103.163 586.271 103.534C586.899 103.906 587.584 104.092 588.327 104.092ZM601.3 107.75V90.1899H605.446L605.795 93.0469C606.329 92.0714 607.084 91.2816 608.06 90.6777C609.058 90.0738 610.243 89.7719 611.613 89.7719C613.077 89.7719 614.308 90.0738 615.307 90.6777C616.305 91.2816 617.06 92.1643 617.571 93.3257C618.105 94.487 618.373 95.9155 618.373 97.6112V107.75H613.704V98.0641C613.704 96.6704 613.402 95.602 612.798 94.8587C612.217 94.1154 611.311 93.7438 610.08 93.7438C609.291 93.7438 608.582 93.9296 607.955 94.3012C607.351 94.6729 606.875 95.2071 606.527 95.9039C606.178 96.5775 606.004 97.4021 606.004 98.3777V107.75H601.3Z" fill="#FBEB7E"/>
<path d="M74.5769 112.105H628.704V113.847H74.5769V112.105Z" fill="#FBFBFB"/>
<defs>
<linearGradient id="paint0_linear_720_531" x1="0" y1="0.291992" x2="927.071" y2="368.227" gradientUnits="userSpaceOnUse">
<stop stop-color="#B79EFF" stop-opacity="0.6"/>
<stop offset="1" stop-color="#C71DFF"/>
</linearGradient>
</defs>
</svg>
